<?xml version="1.0" encoding="utf-8"?>
<!-- Generator: Adobe Illustrator 21.0.2, SVG Export Plug-In . SVG Version: 6.00 Build 0)  -->
<svg version="1.1" id="Layer_1" xmlns="http://www.w3.org/2000/svg" xmlns:xlink="http://www.w3.org/1999/xlink" x="0px" y="0px"
	 viewBox="0 0 30 30" style="enable-background:new 0 0 30 30;" xml:space="preserve">
<style type="text/css">
	.st0{fill:#FFFFFF;}
</style>
<g transform="translate(0,-952.36218)">
	<path class="st0" d="M3.7,957.2c-1.2,0-2.3,1-2.3,2.3v12.8c0,1.2,1,2.3,2.3,2.3h10.6v1.5H7.8c0,0,0,0-0.1,0c-0.4,0-0.7,0.4-0.7,0.8
		c0,0.4,0.4,0.7,0.8,0.7h14.3c0.4,0,0.8-0.3,0.8-0.7c0-0.4-0.3-0.8-0.7-0.8c0,0,0,0,0,0h-6.4v-1.5h10.6c1.2,0,2.3-1,2.3-2.3v-12.8
		c0-1.2-1-2.3-2.3-2.3H3.7z M3.7,958.7h22.6c0.4,0,0.8,0.3,0.8,0.8v12.8c0,0.4-0.3,0.8-0.8,0.8H3.7c-0.4,0-0.8-0.3-0.8-0.8v-12.8
		C2.9,959,3.2,958.7,3.7,958.7z M11.6,964.7c-0.6,0-1.1,0.5-1.1,1.1s0.5,1.1,1.1,1.1c0.6,0,1.1-0.5,1.1-1.1S12.2,964.7,11.6,964.7z
		 M15,964.7c-0.6,0-1.1,0.5-1.1,1.1s0.5,1.1,1.1,1.1s1.1-0.5,1.1-1.1S15.6,964.7,15,964.7z M18.4,964.7c-0.6,0-1.1,0.5-1.1,1.1
		s0.5,1.1,1.1,1.1c0.6,0,1.1-0.5,1.1-1.1S19,964.7,18.4,964.7z"/>
</g>
</svg>
