<?xml version="1.0" encoding="utf-8"?>
<!-- Generator: Adobe Illustrator 21.0.2, SVG Export Plug-In . SVG Version: 6.00 Build 0)  -->
<svg version="1.1" id="Layer_1" xmlns="http://www.w3.org/2000/svg" xmlns:xlink="http://www.w3.org/1999/xlink" x="0px" y="0px"
	 viewBox="0 0 938 830" style="enable-background:new 0 0 938 830;" xml:space="preserve">
<style type="text/css">
	.st0{fill:none;stroke:#ECEBA9;stroke-width:0.9778;stroke-miterlimit:10;}
	.st1{fill:none;stroke:#ECEBA9;stroke-width:0.9778;stroke-miterlimit:10;stroke-dasharray:2.0105,2.0105;}
	.st2{fill:none;stroke:#ECEBA9;stroke-width:0.9778;stroke-miterlimit:10;stroke-dasharray:2.0143,2.0143;}
	.st3{fill:#FFFFFF;}
	.st4{fill:#ECEBA9;}
	.st5{fill:none;stroke:#ECEBA9;stroke-width:2;stroke-miterlimit:10;}
	.st6{fill:none;stroke:#FFFFFF;stroke-width:2;stroke-miterlimit:10;}
	.st7{fill:none;stroke:#FFFFFF;stroke-miterlimit:10;}
	.st8{fill:none;stroke:#ECEBA9;stroke-width:0.9778;stroke-miterlimit:10;stroke-dasharray:2.0234,2.0234;}
	.st9{fill:none;stroke:#ECEBA9;stroke-width:0.9778;stroke-miterlimit:10;stroke-dasharray:1.9149,1.9149;}
</style>
<g>
	<g>
		<line class="st0" x1="300.3" y1="88.7" x2="301.3" y2="88.7"/>
		<line class="st1" x1="303.3" y1="88.7" x2="467.1" y2="88.7"/>
		<polyline class="st0" points="468.1,88.7 469.1,88.7 469.1,89.7 		"/>
		<line class="st2" x1="469.1" y1="91.7" x2="469.1" y2="171.3"/>
		<line class="st0" x1="469.1" y1="172.3" x2="469.1" y2="173.3"/>
		<g>
			<g>
				<circle class="st3" cx="300.5" cy="88.7" r="3.7"/>
				<path class="st4" d="M300.5,92.9c2.3,0,4.2-1.9,4.2-4.2c0-2.3-1.9-4.2-4.2-4.2s-4.2,1.9-4.2,4.2C296.3,91,298.2,92.9,300.5,92.9
					S298.2,92.9,300.5,92.9z M300.5,85.5c1.8,0,3.2,1.4,3.2,3.2c0,1.8-1.4,3.2-3.2,3.2s-3.2-1.4-3.2-3.2
					C297.3,87,298.7,85.5,300.5,85.5S298.7,85.5,300.5,85.5z"/>
			</g>
		</g>
	</g>
</g>
<g>
	<path class="st4" d="M77.7,62.5V44h7.5c3.7,0,5.8,2.6,5.8,5.6s-2.1,5.6-5.8,5.6h-5.1v7.4H77.7z M88.6,49.6c0-2.1-1.5-3.5-3.7-3.5
		h-4.9v7.1h4.9C87.1,53.1,88.6,51.7,88.6,49.6z"/>
	<path class="st4" d="M105.1,62.5l-4.7-7.4h-3.7v7.4h-2.3V44h7.5c3.4,0,5.8,2.2,5.8,5.6c0,3.3-2.3,5.2-4.8,5.4l5,7.6H105.1z
		 M105.2,49.6c0-2.1-1.5-3.5-3.7-3.5h-4.9v7.1h4.9C103.7,53.1,105.2,51.7,105.2,49.6z"/>
	<path class="st4" d="M111.5,62.5V44h12.2V46h-9.8v6h9.7v2.1h-9.7v6.4h9.8v2.1H111.5z"/>
	<path class="st4" d="M126.5,59.9l1.4-1.8c1.2,1.4,3.2,2.6,5.8,2.6c3.3,0,4.4-1.8,4.4-3.2c0-4.8-11-2.1-11-8.8
		c0-3.1,2.7-5.1,6.4-5.1c2.8,0,5,0.9,6.6,2.6l-1.4,1.7c-1.4-1.5-3.3-2.2-5.4-2.2c-2.2,0-3.8,1.2-3.8,2.9c0,4.2,11,1.8,11,8.7
		c0,2.7-1.8,5.5-6.8,5.5C130.4,62.9,128.1,61.6,126.5,59.9z"/>
	<path class="st4" d="M143.1,59.9l1.4-1.8c1.2,1.4,3.2,2.6,5.8,2.6c3.3,0,4.4-1.8,4.4-3.2c0-4.8-11-2.1-11-8.8
		c0-3.1,2.7-5.1,6.4-5.1c2.8,0,5,0.9,6.6,2.6l-1.4,1.7c-1.4-1.5-3.3-2.2-5.4-2.2c-2.2,0-3.8,1.2-3.8,2.9c0,4.2,11,1.8,11,8.7
		c0,2.7-1.8,5.5-6.8,5.5C147,62.9,144.6,61.6,143.1,59.9z"/>
	<path class="st4" d="M180.2,62.5c-0.6-0.5-1.3-1.2-2-1.9c-1.4,1.4-3.1,2.3-5.3,2.3c-3.2,0-5.8-1.7-5.8-5.2c0-2.9,1.9-4.4,4.1-5.5
		c-0.8-1.4-1.4-2.9-1.4-4.2c0-2.5,2.1-4.3,4.7-4.3c2.4,0,4.2,1.3,4.2,3.6c0,2.8-2.4,4-4.7,5.2c0.8,1,1.5,1.9,2.1,2.6
		c0.8,0.9,1.5,1.7,2.2,2.5c1-1.5,1.7-3.2,2-4.2l1.8,0.8c-0.6,1.5-1.4,3.2-2.5,4.8c1.1,1.1,2.3,2.3,3.6,3.5H180.2z M177,59.3
		c-1.1-1.1-2-2.2-2.6-2.8c-0.8-0.9-1.6-1.9-2.3-2.9c-1.5,0.9-2.7,2.1-2.7,4c0,2.3,1.8,3.6,3.7,3.6C174.6,61.1,175.9,60.4,177,59.3z
		 M173,51.2c2-1,3.7-2,3.7-3.8c0-1.4-0.9-2.1-2.2-2.1c-1.4,0-2.6,1.1-2.6,2.7C171.9,49,172.4,50.2,173,51.2z"/>
	<path class="st4" d="M207,62.5V54h-10.8v8.5h-2.3V44h2.3v8H207v-8h2.3v18.6H207z"/>
	<path class="st4" d="M213.2,53.3c0-5.5,3.7-9.6,9.2-9.6c5.5,0,9.2,4.1,9.2,9.6c0,5.5-3.7,9.6-9.2,9.6
		C216.9,62.9,213.2,58.8,213.2,53.3z M229.2,53.3c0-4.3-2.7-7.5-6.8-7.5c-4.2,0-6.8,3.2-6.8,7.5c0,4.3,2.6,7.5,6.8,7.5
		C226.5,60.8,229.2,57.6,229.2,53.3z"/>
	<path class="st4" d="M235.5,62.5V44h2.3v16.5h8.6v2.1H235.5z"/>
	<path class="st4" d="M249.9,62.5V44h6.3c5.8,0,9.5,4,9.5,9.3c0,5.3-3.8,9.3-9.5,9.3H249.9z M263.4,53.3c0-4-2.5-7.2-7.1-7.2h-4
		v14.4h4C260.8,60.5,263.4,57.3,263.4,53.3z"/>
	<path class="st4" d="M57.1,97.8V81.3h-5.9v-2.1h14.1v2.1h-5.9v16.5H57.1z"/>
	<path class="st4" d="M67.2,88.5c0-5.5,3.7-9.6,9.2-9.6c5.5,0,9.2,4.1,9.2,9.6c0,5.5-3.7,9.6-9.2,9.6C70.9,98.1,67.2,94,67.2,88.5z
		 M83.2,88.5c0-4.3-2.7-7.5-6.8-7.5c-4.2,0-6.8,3.2-6.8,7.5c0,4.3,2.6,7.5,6.8,7.5C80.5,96,83.2,92.8,83.2,88.5z"/>
	<path class="st4" d="M96.2,88.5c0-5.8,4.3-9.6,9.5-9.6c3.3,0,5.6,1.4,7.2,3.5l-1.8,1.1c-1.2-1.5-3.1-2.6-5.4-2.6
		c-4.1,0-7.2,3.1-7.2,7.5c0,4.4,3.1,7.6,7.2,7.6c2.2,0,4.1-1.1,5-2v-3.8h-6.4v-2.1h8.7v6.7c-1.7,1.9-4.3,3.2-7.3,3.2
		C100.4,98.1,96.2,94.2,96.2,88.5z"/>
	<path class="st4" d="M116.3,88.5c0-5.5,3.7-9.6,9.2-9.6c5.5,0,9.2,4.1,9.2,9.6c0,5.5-3.7,9.6-9.2,9.6C120,98.1,116.3,94,116.3,88.5
		z M132.3,88.5c0-4.3-2.7-7.5-6.8-7.5c-4.2,0-6.8,3.2-6.8,7.5c0,4.3,2.6,7.5,6.8,7.5C129.6,96,132.3,92.8,132.3,88.5z"/>
	<path class="st4" d="M146.1,97.8V79.2h2.3v18.6H146.1z"/>
	<path class="st4" d="M166.1,97.8L155.3,83v14.8H153V79.2h2.4L166,93.7V79.2h2.3v18.6H166.1z"/>
	<path class="st4" d="M177.6,97.8V81.3h-5.9v-2.1h14.1v2.1h-5.9v16.5H177.6z"/>
	<path class="st4" d="M187.6,88.5c0-5.5,3.7-9.6,9.2-9.6c5.5,0,9.2,4.1,9.2,9.6c0,5.5-3.7,9.6-9.2,9.6
		C191.3,98.1,187.6,94,187.6,88.5z M203.6,88.5c0-4.3-2.7-7.5-6.8-7.5c-4.2,0-6.8,3.2-6.8,7.5c0,4.3,2.6,7.5,6.8,7.5
		C200.9,96,203.6,92.8,203.6,88.5z"/>
	<path class="st4" d="M221.9,97.8V81.3h-5.9v-2.1h14.1v2.1h-5.9v16.5H221.9z"/>
	<path class="st4" d="M246.7,97.8v-8.5h-10.8v8.5h-2.3V79.2h2.3v8h10.8v-8h2.3v18.6H246.7z"/>
	<path class="st4" d="M253.6,97.8V79.2h12.2v2.1h-9.8v6h9.7v2.1h-9.7v6.4h9.8v2.1H253.6z"/>
	<path class="st4" d="M78.4,114.1l1,0.8c-0.9,0.6-1.7,1.7-1.8,2.6c0.1,0,0.3,0,0.4,0c0.8,0,1.4,0.6,1.4,1.4c0,0.8-0.7,1.5-1.5,1.5
		c-0.9,0-1.8-0.8-1.8-2.1C76.2,116.6,77.2,115.1,78.4,114.1z"/>
	<path class="st4" d="M96.9,133L86,118.2V133h-2.3v-18.6h2.4l10.7,14.5v-14.5h2.3V133H96.9z"/>
	<path class="st4" d="M103.7,133v-18.6h12.2v2.1H106v6h9.7v2.1H106v6.4h9.8v2.1H103.7z"/>
	<path class="st4" d="M119.1,123.7c0-5.5,3.7-9.6,9.2-9.6c5.5,0,9.2,4.1,9.2,9.6c0,5.5-3.7,9.6-9.2,9.6
		C122.8,133.3,119.1,129.2,119.1,123.7z M135.1,123.7c0-4.3-2.7-7.5-6.8-7.5c-4.2,0-6.8,3.2-6.8,7.5c0,4.3,2.6,7.5,6.8,7.5
		C132.4,131.2,135.1,128,135.1,123.7z"/>
	<path class="st4" d="M154.5,133l-10.8-14.8V133h-2.3v-18.6h2.4l10.7,14.5v-14.5h2.3V133H154.5z"/>
	<path class="st4" d="M168.8,133v-18.6h2.3v16.5h8.6v2.1H168.8z"/>
	<path class="st4" d="M183.3,133v-18.6h2.3V133H183.3z"/>
	<path class="st4" d="M189.4,123.7c0-5.8,4.3-9.6,9.5-9.6c3.3,0,5.6,1.4,7.2,3.5l-1.8,1.1c-1.2-1.5-3.1-2.6-5.4-2.6
		c-4.1,0-7.2,3.1-7.2,7.5c0,4.4,3.1,7.6,7.2,7.6c2.2,0,4.1-1.1,5-2v-3.8h-6.4v-2.1h8.7v6.7c-1.7,1.9-4.3,3.2-7.3,3.2
		C193.7,133.3,189.4,129.5,189.4,123.7z"/>
	<path class="st4" d="M223.4,133v-8.5h-10.8v8.5h-2.3v-18.6h2.3v8h10.8v-8h2.3V133H223.4z"/>
	<path class="st4" d="M235,133v-16.5h-5.9v-2.1h14.1v2.1h-5.9V133H235z"/>
	<path class="st4" d="M245.3,130.4l1.4-1.8c1.2,1.4,3.2,2.6,5.8,2.6c3.3,0,4.4-1.8,4.4-3.2c0-4.8-11-2.1-11-8.8
		c0-3.1,2.7-5.1,6.4-5.1c2.8,0,5,0.9,6.6,2.6l-1.4,1.7c-1.4-1.5-3.3-2.2-5.4-2.2c-2.2,0-3.8,1.2-3.8,2.9c0,4.2,11,1.8,11,8.7
		c0,2.7-1.8,5.5-6.8,5.5C249.2,133.3,246.8,132.1,245.3,130.4z"/>
	<path class="st4" d="M263.5,120.4l-1-0.9c0.9-0.6,1.7-1.7,1.8-2.6c-0.1,0-0.3,0.1-0.4,0.1c-0.8,0-1.3-0.6-1.3-1.4
		c0-0.8,0.6-1.5,1.5-1.5c0.9,0,1.8,0.8,1.8,2.1C265.7,117.9,264.7,119.5,263.5,120.4z"/>
</g>
<circle class="st4" cx="469.5" cy="210.3" r="24.7"/>
<circle class="st5" cx="469.5" cy="210.3" r="37.9"/>
<path class="st6" d="M468.3,785.3L468.3,785.3c-70.5,0-128.3-57.7-128.3-128.3V200.6c0-70.5,57.7-128.3,128.3-128.3h0
	c70.5,0,128.3,57.7,128.3,128.3v456.5C596.6,727.6,538.9,785.3,468.3,785.3z"/>
<circle class="st7" cx="468.3" cy="210.2" r="109.3"/>
<circle class="st7" cx="468.3" cy="408" r="42.7"/>
<circle class="st7" cx="468.3" cy="534.5" r="42.7"/>
<circle class="st7" cx="468.3" cy="534.5" r="18.7"/>
<line class="st7" x1="450.6" y1="408.2" x2="486.1" y2="408.2"/>
<g>
	<g>
		<line class="st0" x1="635.4" y1="165.9" x2="634.4" y2="165.9"/>
		<line class="st8" x1="632.4" y1="165.9" x2="552.5" y2="165.9"/>
		<polyline class="st0" points="551.4,165.9 550.4,165.9 550.4,166.9 		"/>
		<line class="st9" x1="550.4" y1="168.8" x2="550.4" y2="198.5"/>
		<line class="st0" x1="550.4" y1="199.4" x2="550.4" y2="200.4"/>
		<g>
			<g>
				<circle class="st3" cx="635.2" cy="165.9" r="3.7"/>
				<path class="st4" d="M635.2,161.7c-2.3,0-4.2,1.9-4.2,4.2c0,2.3,1.9,4.2,4.2,4.2c2.3,0,4.2-1.9,4.2-4.2
					C639.4,163.6,637.5,161.7,635.2,161.7C632.9,161.7,637.5,161.7,635.2,161.7z M635.2,169.1c-1.8,0-3.2-1.4-3.2-3.2
					s1.4-3.2,3.2-3.2c1.8,0,3.2,1.4,3.2,3.2S637,169.1,635.2,169.1C633.4,169.1,637,169.1,635.2,169.1z"/>
			</g>
		</g>
	</g>
</g>
<g>
	<path class="st4" d="M663.2,135.9l1.4-1.8c1.2,1.4,3.2,2.6,5.8,2.6c3.3,0,4.4-1.8,4.4-3.2c0-4.8-11-2.1-11-8.8
		c0-3.1,2.7-5.1,6.4-5.1c2.8,0,5,0.9,6.6,2.6l-1.4,1.7c-1.4-1.5-3.3-2.2-5.4-2.2c-2.2,0-3.8,1.2-3.8,2.9c0,4.2,11,1.8,11,8.7
		c0,2.7-1.8,5.5-6.8,5.5C667.1,138.8,664.7,137.6,663.2,135.9z"/>
	<path class="st4" d="M695.1,138.5l-4.1-15l-4.1,15h-2.5l-5.3-18.6h2.6l4.1,15.5l4.3-15.5h1.9l4.3,15.5l4.1-15.5h2.6l-5.3,18.6
		H695.1z"/>
	<path class="st4" d="M705.8,138.5v-18.6h2.3v18.6H705.8z"/>
	<path class="st4" d="M712.7,138.5v-18.6h7.5c3.7,0,5.8,2.6,5.8,5.6s-2.1,5.6-5.8,5.6H715v7.4H712.7z M723.6,125.5
		c0-2.1-1.5-3.5-3.7-3.5H715v7.1h4.9C722.1,129.1,723.6,127.6,723.6,125.5z"/>
	<path class="st4" d="M729.3,138.5v-18.6h12.2v2.1h-9.8v6h9.7v2.1h-9.7v6.4h9.8v2.1H729.3z"/>
	<path class="st4" d="M664.3,173.7v-18.6h2.3v16.5h8.6v2.1H664.3z"/>
	<path class="st4" d="M678.8,173.7v-18.6H691v2.1h-9.8v6h9.7v2.1h-9.7v6.4h9.8v2.1H678.8z"/>
	<path class="st4" d="M694.9,173.7v-18.6h12.2v2.1h-9.8v6h9.7v2.1h-9.7v8.5H694.9z"/>
	<path class="st4" d="M715.1,173.7v-16.5h-5.9v-2.1h14.1v2.1h-5.9v16.5H715.1z"/>
	<path class="st4" d="M746.1,173.7c-0.6-0.5-1.3-1.2-2-1.9c-1.4,1.4-3.1,2.3-5.3,2.3c-3.2,0-5.8-1.7-5.8-5.2c0-2.9,1.9-4.4,4.1-5.5
		c-0.8-1.4-1.4-2.9-1.4-4.2c0-2.5,2.1-4.3,4.7-4.3c2.4,0,4.2,1.3,4.2,3.6c0,2.8-2.4,4-4.7,5.2c0.8,1,1.5,1.9,2.1,2.6
		c0.8,0.9,1.5,1.7,2.2,2.5c1-1.5,1.7-3.2,2-4.2l1.8,0.8c-0.6,1.5-1.4,3.2-2.5,4.8c1.1,1.1,2.3,2.3,3.6,3.5H746.1z M742.8,170.5
		c-1.1-1.1-2-2.2-2.6-2.8c-0.8-0.9-1.6-1.9-2.3-2.9c-1.5,0.9-2.7,2.1-2.7,4c0,2.3,1.8,3.6,3.7,3.6
		C740.4,172.3,741.7,171.5,742.8,170.5z M738.9,162.4c2-1,3.7-2,3.7-3.8c0-1.4-0.9-2.1-2.2-2.1c-1.4,0-2.6,1.1-2.6,2.7
		C737.7,160.2,738.2,161.3,738.9,162.4z"/>
	<path class="st4" d="M770.4,173.7l-4.7-7.4h-3.7v7.4h-2.3v-18.6h7.5c3.4,0,5.8,2.2,5.8,5.6c0,3.3-2.3,5.2-4.8,5.4l5,7.6H770.4z
		 M770.5,160.7c0-2.1-1.5-3.5-3.7-3.5h-4.9v7.1h4.9C769,164.3,770.5,162.8,770.5,160.7z"/>
	<path class="st4" d="M776.8,173.7v-18.6h2.3v18.6H776.8z"/>
	<path class="st4" d="M783,164.4c0-5.8,4.3-9.6,9.5-9.6c3.3,0,5.6,1.4,7.2,3.5l-1.8,1.1c-1.2-1.5-3.1-2.6-5.4-2.6
		c-4.1,0-7.1,3.1-7.1,7.5c0,4.4,3.1,7.6,7.1,7.6c2.2,0,4.1-1.1,5-2v-3.8h-6.4v-2.1h8.7v6.7c-1.7,1.9-4.3,3.2-7.3,3.2
		C787.3,174.1,783,170.2,783,164.4z"/>
	<path class="st4" d="M817,173.7v-8.5h-10.8v8.5h-2.3v-18.6h2.3v8H817v-8h2.3v18.6H817z"/>
	<path class="st4" d="M828.5,173.7v-16.5h-5.9v-2.1h14.1v2.1h-5.9v16.5H828.5z"/>
	<path class="st4" d="M668.9,208.9v-16.5h-5.9v-2.1h14.1v2.1h-5.9v16.5H668.9z"/>
	<path class="st4" d="M679,199.7c0-5.5,3.7-9.6,9.2-9.6c5.5,0,9.2,4.1,9.2,9.6c0,5.5-3.7,9.6-9.2,9.6
		C682.7,209.3,679,205.1,679,199.7z M695,199.7c0-4.3-2.7-7.5-6.8-7.5c-4.2,0-6.8,3.2-6.8,7.5c0,4.3,2.6,7.5,6.8,7.5
		C692.3,207.2,695,204,695,199.7z"/>
	<path class="st4" d="M713.3,208.9v-16.5h-5.9v-2.1h14.1v2.1h-5.9v16.5H713.3z"/>
	<path class="st4" d="M724.9,201.7v-11.3h2.3v11.3c0,3.4,1.8,5.5,5.3,5.5c3.4,0,5.3-2.1,5.3-5.5v-11.3h2.3v11.3
		c0,4.6-2.5,7.6-7.6,7.6C727.4,209.3,724.9,206.3,724.9,201.7z"/>
	<path class="st4" d="M755.3,208.9l-4.7-7.4h-3.7v7.4h-2.3v-18.6h7.5c3.4,0,5.8,2.2,5.8,5.6c0,3.3-2.3,5.2-4.8,5.4l5,7.6H755.3z
		 M755.5,196c0-2.1-1.5-3.5-3.7-3.5h-4.9v7.1h4.9C754,199.5,755.5,198,755.5,196z"/>
	<path class="st4" d="M774.9,208.9l-10.8-14.8v14.8h-2.3v-18.6h2.4l10.7,14.5v-14.5h2.3v18.6H774.9z"/>
</g>
<polyline class="st5" points="400.1,189.4 378.9,210.6 399.9,231.6 "/>
<polyline class="st5" points="538.8,189.4 559.9,210.6 538.9,231.6 "/>
</svg>
