<?xml version="1.0" encoding="utf-8"?>
<!-- Generator: Adobe Illustrator 21.0.2, SVG Export Plug-In . SVG Version: 6.00 Build 0)  -->
<svg version="1.1" id="Layer_1" xmlns="http://www.w3.org/2000/svg" xmlns:xlink="http://www.w3.org/1999/xlink" x="0px" y="0px"
	 viewBox="0 0 964.6 550" style="enable-background:new 0 0 964.6 550;" xml:space="preserve">
<style type="text/css">
	.st0{fill:none;stroke:#FFFFFF;stroke-width:3;stroke-miterlimit:10;}
	.st1{fill:none;stroke:#FFFFFF;stroke-miterlimit:10;}
	.st2{fill:none;stroke:#ECEBA9;stroke-width:0.9778;stroke-miterlimit:10;}
	.st3{fill:none;stroke:#ECEBA9;stroke-width:0.9778;stroke-miterlimit:10;stroke-dasharray:2.0105,2.0105;}
	.st4{fill:none;stroke:#ECEBA9;stroke-width:0.9778;stroke-miterlimit:10;stroke-dasharray:2.0143,2.0143;}
	.st5{fill:#FFFFFF;}
	.st6{fill:#ECEBA9;}
	.st7{enable-background:new    ;}
	.st8{fill:none;stroke:#ECEBA9;stroke-width:2;stroke-miterlimit:10;}
	.st9{fill:none;stroke:#ECEBA9;stroke-width:0.9778;stroke-miterlimit:10;stroke-dasharray:2.0234,2.0234;}
	.st10{fill:none;stroke:#ECEBA9;stroke-width:0.9778;stroke-miterlimit:10;stroke-dasharray:1.9149,1.9149;}
</style>
<path class="st0" d="M481.7,543.9L481.7,543.9c-69,0-125.4-56.4-125.4-125.4V251.4c0-69,56.4-125.4,125.4-125.4l0,0
	c69,0,125.4,56.4,125.4,125.4v167.1C607.1,487.4,550.7,543.9,481.7,543.9z"/>
<line class="st1" x1="356.2" y1="300" x2="607.5" y2="300"/>
<g>
	<g>
		<line class="st2" x1="249.3" y1="110.5" x2="250.3" y2="110.5"/>
		<line class="st3" x1="252.3" y1="110.5" x2="416.2" y2="110.5"/>
		<polyline class="st2" points="417.2,110.5 418.2,110.5 418.2,111.5 		"/>
		<line class="st4" x1="418.2" y1="113.5" x2="418.2" y2="193.1"/>
		<line class="st2" x1="418.2" y1="194.1" x2="418.2" y2="195.1"/>
		<g>
			<g>
				<circle class="st5" cx="249.5" cy="110.5" r="3.7"/>
				<path class="st6" d="M249.5,114.6c2.3,0,4.2-1.9,4.2-4.2c0-2.3-1.9-4.2-4.2-4.2s-4.2,1.9-4.2,4.2
					C245.3,112.8,247.2,114.6,249.5,114.6S247.2,114.6,249.5,114.6z M249.5,107.3c1.8,0,3.2,1.4,3.2,3.2s-1.4,3.2-3.2,3.2
					s-3.2-1.4-3.2-3.2S247.8,107.3,249.5,107.3S247.8,107.3,249.5,107.3z"/>
			</g>
		</g>
	</g>
</g>
<g class="st7">
	<path class="st6" d="M37.6,58c0-5.7,4.2-9.6,9.5-9.6c3.3,0,5.6,1.6,7,3.7l-1.9,1.1c-1.1-1.6-3-2.7-5.1-2.7c-4.1,0-7.1,3.1-7.1,7.5
		c0,4.4,3.1,7.5,7.1,7.5c2.1,0,4-1.1,5.1-2.7l2,1.1c-1.6,2.1-3.8,3.7-7.1,3.7C41.8,67.6,37.6,63.7,37.6,58z"/>
	<path class="st6" d="M57.1,67.3V48.7h2.3v16.5H68v2.1H57.1z"/>
	<path class="st6" d="M71.3,67.3V48.7h2.3v18.6H71.3z"/>
	<path class="st6" d="M77.2,58c0-5.7,4.2-9.6,9.5-9.6c3.3,0,5.6,1.6,7,3.7l-1.9,1.1c-1.1-1.6-3-2.7-5.1-2.7c-4.1,0-7.1,3.1-7.1,7.5
		c0,4.4,3.1,7.5,7.1,7.5c2.1,0,4-1.1,5.1-2.7l2,1.1c-1.6,2.1-3.8,3.7-7.1,3.7C81.4,67.6,77.2,63.7,77.2,58z"/>
	<path class="st6" d="M108,67.3l-7-8.3l-1.9,2.1v6.2h-2.3V48.7h2.3v9.6l8.2-9.6h2.9l-7.7,8.8l8.4,9.7H108z"/>
	<path class="st6" d="M132.6,67.3c-0.6-0.5-1.3-1.2-2-1.9c-1.4,1.4-3.1,2.3-5.3,2.3c-3.2,0-5.8-1.7-5.8-5.2c0-2.9,1.9-4.4,4.1-5.5
		c-0.8-1.4-1.4-2.9-1.4-4.2c0-2.5,2.1-4.3,4.7-4.3c2.4,0,4.2,1.3,4.2,3.6c0,2.8-2.4,4-4.7,5.2c0.8,1,1.5,1.9,2.1,2.6
		c0.8,0.9,1.5,1.7,2.2,2.5c1-1.5,1.7-3.2,2-4.2l1.8,0.8c-0.6,1.5-1.4,3.2-2.5,4.8c1.1,1.1,2.3,2.3,3.6,3.5H132.6z M129.3,64.1
		c-1.1-1.1-2-2.2-2.6-2.8c-0.8-0.9-1.6-1.9-2.3-2.9c-1.5,0.9-2.7,2.1-2.7,4c0,2.3,1.8,3.6,3.7,3.6C127,65.9,128.3,65.1,129.3,64.1z
		 M125.4,56c2-1,3.7-2,3.7-3.8c0-1.4-0.9-2.1-2.2-2.1c-1.4,0-2.6,1.1-2.6,2.7C124.3,53.8,124.8,54.9,125.4,56z"/>
	<path class="st6" d="M158.8,67.3v-8.5H148v8.5h-2.3V48.7h2.3v8h10.8v-8h2.3v18.6H158.8z"/>
	<path class="st6" d="M164.7,58c0-5.5,3.7-9.6,9.2-9.6c5.5,0,9.2,4.1,9.2,9.6c0,5.5-3.7,9.6-9.2,9.6C168.4,67.6,164.7,63.5,164.7,58
		z M180.7,58c0-4.3-2.7-7.5-6.8-7.5c-4.2,0-6.8,3.2-6.8,7.5c0,4.3,2.6,7.5,6.8,7.5C178.1,65.6,180.7,62.3,180.7,58z"/>
	<path class="st6" d="M186.7,67.3V48.7h2.3v16.5h8.6v2.1H186.7z"/>
	<path class="st6" d="M200.9,67.3V48.7h6.3c5.8,0,9.5,4,9.5,9.3c0,5.3-3.8,9.3-9.5,9.3H200.9z M214.4,58c0-4-2.5-7.2-7.1-7.2h-4
		v14.4h4C211.8,65.2,214.4,62,214.4,58z"/>
</g>
<g class="st7">
	<path class="st6" d="M48.7,102.5v-7.8l-7.3-10.7h2.7l5.8,8.6l5.8-8.6h2.7L51,94.6v7.8H48.7z"/>
	<path class="st6" d="M58.9,93.2c0-5.5,3.7-9.6,9.2-9.6c5.5,0,9.2,4.1,9.2,9.6c0,5.5-3.7,9.6-9.2,9.6
		C62.6,102.8,58.9,98.7,58.9,93.2z M74.9,93.2c0-4.3-2.7-7.5-6.8-7.5c-4.2,0-6.8,3.2-6.8,7.5c0,4.3,2.6,7.5,6.8,7.5
		C72.2,100.8,74.9,97.5,74.9,93.2z"/>
	<path class="st6" d="M80.9,95.3V83.9h2.3v11.3c0,3.4,1.8,5.5,5.3,5.5s5.3-2.1,5.3-5.5V83.9H96v11.3c0,4.6-2.5,7.6-7.6,7.6
		S80.9,99.9,80.9,95.3z"/>
	<path class="st6" d="M111.1,102.5l-4.7-7.4h-3.7v7.4h-2.3V83.9h7.5c3.4,0,5.8,2.2,5.8,5.6c0,3.3-2.3,5.2-4.8,5.4l5,7.6H111.1z
		 M111.2,89.5c0-2.1-1.5-3.5-3.7-3.5h-4.9v7.1h4.9C109.7,93.1,111.2,91.6,111.2,89.5z"/>
	<path class="st6" d="M140.3,102.5V87.2l-6.3,15.3H133l-6.3-15.3v15.3h-2.3V83.9h3.3l5.8,14l5.8-14h3.3v18.6H140.3z"/>
	<path class="st6" d="M146.2,93.2c0-5.5,3.7-9.6,9.2-9.6c5.5,0,9.2,4.1,9.2,9.6c0,5.5-3.7,9.6-9.2,9.6
		C149.9,102.8,146.2,98.7,146.2,93.2z M162.2,93.2c0-4.3-2.7-7.5-6.8-7.5c-4.2,0-6.8,3.2-6.8,7.5c0,4.3,2.6,7.5,6.8,7.5
		C159.6,100.8,162.2,97.5,162.2,93.2z"/>
	<path class="st6" d="M168.2,95.3V83.9h2.3v11.3c0,3.4,1.8,5.5,5.3,5.5s5.3-2.1,5.3-5.5V83.9h2.3v11.3c0,4.6-2.5,7.6-7.6,7.6
		S168.2,99.9,168.2,95.3z"/>
	<path class="st6" d="M186.6,99.9l1.4-1.8c1.2,1.4,3.2,2.6,5.8,2.6c3.3,0,4.4-1.8,4.4-3.2c0-4.8-11-2.1-11-8.8
		c0-3.1,2.7-5.1,6.4-5.1c2.8,0,5,0.9,6.6,2.6l-1.4,1.7c-1.4-1.5-3.3-2.2-5.4-2.2c-2.2,0-3.8,1.2-3.8,2.9c0,4.2,11,1.8,11,8.7
		c0,2.7-1.8,5.5-6.8,5.5C190.5,102.8,188.1,101.6,186.6,99.9z"/>
	<path class="st6" d="M204,102.5V83.9h12.2V86h-9.8v6h9.7V94h-9.7v6.4h9.8v2.1H204z"/>
</g>
<g class="st7">
	<path class="st6" d="M9.7,137.7v-16.5H3.8v-2.1h14.1v2.1H12v16.5H9.7z"/>
	<path class="st6" d="M19.5,128.4c0-5.5,3.7-9.6,9.2-9.6c5.5,0,9.2,4.1,9.2,9.6c0,5.5-3.7,9.6-9.2,9.6
		C23.2,138,19.5,133.9,19.5,128.4z M35.5,128.4c0-4.3-2.7-7.5-6.8-7.5c-4.2,0-6.8,3.2-6.8,7.5c0,4.3,2.6,7.5,6.8,7.5
		C32.8,136,35.5,132.7,35.5,128.4z"/>
	<path class="st6" d="M47.9,128.4c0-5.8,4.3-9.6,9.5-9.6c3.3,0,5.6,1.4,7.2,3.5l-1.8,1.1c-1.2-1.5-3.1-2.6-5.4-2.6
		c-4.1,0-7.1,3.1-7.1,7.5c0,4.4,3.1,7.6,7.1,7.6c2.2,0,4.1-1.1,5-2v-3.8h-6.4v-2.1h8.7v6.7c-1.7,1.9-4.3,3.2-7.3,3.2
		C52.2,138.1,47.9,134.2,47.9,128.4z"/>
	<path class="st6" d="M67.7,128.4c0-5.5,3.7-9.6,9.2-9.6c5.5,0,9.2,4.1,9.2,9.6c0,5.5-3.7,9.6-9.2,9.6
		C71.4,138,67.7,133.9,67.7,128.4z M83.8,128.4c0-4.3-2.7-7.5-6.8-7.5c-4.2,0-6.8,3.2-6.8,7.5c0,4.3,2.6,7.5,6.8,7.5
		C81.1,136,83.8,132.7,83.8,128.4z"/>
	<path class="st6" d="M97,137.7v-18.6h2.3v18.6H97z"/>
	<path class="st6" d="M116.7,137.7l-10.8-14.8v14.8h-2.3v-18.6h2.4l10.7,14.5v-14.5h2.3v18.6H116.7z"/>
	<path class="st6" d="M127.9,137.7v-16.5H122v-2.1h14.1v2.1h-5.9v16.5H127.9z"/>
	<path class="st6" d="M137.7,128.4c0-5.5,3.7-9.6,9.2-9.6c5.5,0,9.2,4.1,9.2,9.6c0,5.5-3.7,9.6-9.2,9.6
		C141.4,138,137.7,133.9,137.7,128.4z M153.7,128.4c0-4.3-2.7-7.5-6.8-7.5c-4.2,0-6.8,3.2-6.8,7.5c0,4.3,2.6,7.5,6.8,7.5
		C151,136,153.7,132.7,153.7,128.4z"/>
	<path class="st6" d="M171.5,137.7v-16.5h-5.9v-2.1h14.1v2.1h-5.9v16.5H171.5z"/>
	<path class="st6" d="M195.9,137.7v-8.5H185v8.5h-2.3v-18.6h2.3v8h10.8v-8h2.3v18.6H195.9z"/>
	<path class="st6" d="M202.5,137.7v-18.6h12.2v2.1h-9.8v6h9.7v2.1h-9.7v6.4h9.8v2.1H202.5z"/>
</g>
<g class="st7">
	<path class="st6" d="M32.4,154.1l1,0.8c-0.9,0.6-1.7,1.7-1.8,2.6c0.1,0,0.3,0,0.4,0c0.8,0,1.4,0.6,1.4,1.4c0,0.8-0.7,1.5-1.5,1.5
		c-0.9,0-1.8-0.8-1.8-2.1C30.1,156.5,31.1,155,32.4,154.1z"/>
	<path class="st6" d="M50.5,172.9l-10.8-14.8v14.8h-2.3v-18.6h2.4l10.7,14.5v-14.5h2.3v18.6H50.5z"/>
	<path class="st6" d="M57.1,172.9v-18.6h12.2v2.1h-9.8v6h9.7v2.1h-9.7v6.4h9.8v2.1H57.1z"/>
	<path class="st6" d="M72.2,163.6c0-5.5,3.7-9.6,9.2-9.6c5.5,0,9.2,4.1,9.2,9.6c0,5.5-3.7,9.6-9.2,9.6
		C75.9,173.2,72.2,169.1,72.2,163.6z M88.2,163.6c0-4.3-2.7-7.5-6.8-7.5c-4.2,0-6.8,3.2-6.8,7.5c0,4.3,2.6,7.5,6.8,7.5
		C85.5,171.2,88.2,167.9,88.2,163.6z"/>
	<path class="st6" d="M107.3,172.9l-10.8-14.8v14.8h-2.3v-18.6h2.4l10.7,14.5v-14.5h2.3v18.6H107.3z"/>
	<path class="st6" d="M121.1,172.9v-18.6h2.3v16.5h8.6v2.1H121.1z"/>
	<path class="st6" d="M135.3,172.9v-18.6h2.3v18.6H135.3z"/>
	<path class="st6" d="M141.2,163.6c0-5.8,4.3-9.6,9.5-9.6c3.3,0,5.6,1.4,7.2,3.5l-1.8,1.1c-1.2-1.5-3.1-2.6-5.4-2.6
		c-4.1,0-7.1,3.1-7.1,7.5c0,4.4,3.1,7.6,7.1,7.6c2.2,0,4.1-1.1,5-2v-3.8h-6.4v-2.1h8.7v6.7c-1.7,1.9-4.3,3.2-7.3,3.2
		C145.4,173.3,141.2,169.4,141.2,163.6z"/>
	<path class="st6" d="M174.9,172.9v-8.5h-10.8v8.5h-2.3v-18.6h2.3v8h10.8v-8h2.3v18.6H174.9z"/>
	<path class="st6" d="M186.1,172.9v-16.5h-5.9v-2.1h14.1v2.1h-5.9v16.5H186.1z"/>
	<path class="st6" d="M196.2,170.3l1.4-1.8c1.2,1.4,3.2,2.6,5.8,2.6c3.3,0,4.4-1.8,4.4-3.2c0-4.8-11-2.1-11-8.8
		c0-3.1,2.7-5.1,6.4-5.1c2.8,0,5,0.9,6.6,2.6l-1.4,1.7c-1.4-1.5-3.3-2.2-5.4-2.2c-2.2,0-3.8,1.2-3.8,2.9c0,4.2,11,1.8,11,8.7
		c0,2.7-1.8,5.5-6.8,5.5C200.1,173.2,197.7,172,196.2,170.3z"/>
	<path class="st6" d="M214.1,160.4l-1-0.9c0.9-0.6,1.7-1.7,1.8-2.6c-0.1,0-0.3,0.1-0.4,0.1c-0.8,0-1.3-0.6-1.3-1.4
		c0-0.8,0.6-1.5,1.5-1.5c0.9,0,1.8,0.8,1.8,2.1C216.4,157.9,215.4,159.5,214.1,160.4z"/>
</g>
<circle class="st6" cx="418.5" cy="232.1" r="21.4"/>
<circle class="st8" cx="418.5" cy="232.1" r="32.8"/>
<circle class="st5" cx="481.2" cy="205.6" r="6.7"/>
<path class="st0" d="M481.7,125.9v-67c0,0-8-52.8,52.8-52.8c0,0,50.3-0.7,50.3,52.8c0,0,1,44.3,44.3,44.3h128.3"/>
<g>
	<g>
		<line class="st2" x1="734.6" y1="254.5" x2="733.6" y2="254.5"/>
		<line class="st9" x1="731.6" y1="254.5" x2="651.7" y2="254.5"/>
		<polyline class="st2" points="650.7,254.5 649.7,254.5 649.7,255.5 		"/>
		<line class="st10" x1="649.7" y1="257.4" x2="649.7" y2="287.1"/>
		<line class="st2" x1="649.7" y1="288" x2="649.7" y2="289"/>
		<g>
			<g>
				<circle class="st5" cx="734.4" cy="254.5" r="3.7"/>
				<path class="st6" d="M734.4,250.3c-2.3,0-4.2,1.9-4.2,4.2c0,2.3,1.9,4.2,4.2,4.2s4.2-1.9,4.2-4.2
					C738.6,252.2,736.7,250.3,734.4,250.3S736.7,250.3,734.4,250.3z M734.4,257.6c-1.8,0-3.2-1.4-3.2-3.2s1.4-3.2,3.2-3.2
					s3.2,1.4,3.2,3.2C737.6,256.2,736.2,257.6,734.4,257.6S736.2,257.6,734.4,257.6z"/>
			</g>
		</g>
	</g>
</g>
<g class="st7">
	<path class="st6" d="M762.8,232.8c0-5.7,4.2-9.6,9.5-9.6c3.3,0,5.6,1.6,7,3.7l-1.9,1.1c-1.1-1.6-3-2.7-5.1-2.7
		c-4.1,0-7.1,3.1-7.1,7.5c0,4.4,3.1,7.5,7.1,7.5c2.1,0,4-1.1,5.1-2.7l2,1.1c-1.6,2.1-3.8,3.7-7.1,3.7
		C767,242.4,762.8,238.5,762.8,232.8z"/>
	<path class="st6" d="M782.4,242.1v-18.6h2.3V240h8.6v2.1H782.4z"/>
	<path class="st6" d="M796.6,242.1v-18.6h2.3v18.6H796.6z"/>
	<path class="st6" d="M802.5,232.8c0-5.7,4.2-9.6,9.5-9.6c3.3,0,5.6,1.6,7,3.7l-1.9,1.1c-1.1-1.6-3-2.7-5.1-2.7
		c-4.1,0-7.1,3.1-7.1,7.5c0,4.4,3.1,7.5,7.1,7.5c2.1,0,4-1.1,5.1-2.7l2,1.1c-1.6,2.1-3.8,3.7-7.1,3.7
		C806.7,242.4,802.5,238.5,802.5,232.8z"/>
	<path class="st6" d="M833.2,242.1l-7-8.3l-1.9,2.1v6.2H822v-18.6h2.3v9.6l8.2-9.6h2.9l-7.7,8.8l8.4,9.7H833.2z"/>
	<path class="st6" d="M857.9,242.1c-0.6-0.5-1.3-1.2-2-1.9c-1.4,1.4-3.1,2.3-5.3,2.3c-3.2,0-5.8-1.7-5.8-5.2c0-2.9,1.9-4.4,4.1-5.5
		c-0.8-1.4-1.4-2.9-1.4-4.2c0-2.5,2.1-4.3,4.7-4.3c2.4,0,4.2,1.3,4.2,3.6c0,2.8-2.4,4-4.7,5.2c0.8,1,1.5,1.9,2.1,2.6
		c0.8,0.9,1.5,1.7,2.2,2.5c1-1.5,1.7-3.2,2-4.2l1.8,0.8c-0.6,1.5-1.4,3.2-2.5,4.8c1.1,1.1,2.3,2.3,3.6,3.5H857.9z M854.6,238.8
		c-1.1-1.1-2-2.2-2.6-2.8c-0.8-0.9-1.6-1.9-2.3-2.9c-1.5,0.9-2.7,2.1-2.7,4c0,2.3,1.8,3.6,3.7,3.6
		C852.3,240.7,853.6,239.9,854.6,238.8z M850.7,230.8c2-1,3.7-2,3.7-3.8c0-1.4-0.9-2.1-2.2-2.1c-1.4,0-2.6,1.1-2.6,2.7
		C849.6,228.6,850.1,229.7,850.7,230.8z"/>
	<path class="st6" d="M870.9,242.1v-18.6h6.3c5.8,0,9.5,4,9.5,9.3c0,5.3-3.8,9.3-9.5,9.3H870.9z M884.4,232.8c0-4-2.5-7.2-7.1-7.2
		h-4V240h4C881.8,240,884.4,236.8,884.4,232.8z"/>
	<path class="st6" d="M901.1,242.1l-4.7-7.4h-3.7v7.4h-2.3v-18.6h7.5c3.4,0,5.8,2.2,5.8,5.6c0,3.3-2.3,5.2-4.8,5.4l5,7.6H901.1z
		 M901.3,229.1c0-2.1-1.5-3.5-3.7-3.5h-4.9v7.1h4.9C899.8,232.7,901.3,231.2,901.3,229.1z"/>
	<path class="st6" d="M920.5,242.1l-1.6-4.1h-9.2l-1.6,4.1h-2.6l7.5-18.6h2.9l7.5,18.6H920.5z M914.3,225.9l-4,10h7.9L914.3,225.9z"
		/>
	<path class="st6" d="M923.8,232.8c0-5.8,4.3-9.6,9.5-9.6c3.3,0,5.6,1.4,7.2,3.5l-1.8,1.1c-1.2-1.5-3.1-2.6-5.4-2.6
		c-4.1,0-7.1,3.1-7.1,7.5c0,4.4,3.1,7.6,7.1,7.6c2.2,0,4.1-1.1,5-2v-3.8H932v-2.1h8.7v6.7c-1.7,1.9-4.3,3.2-7.3,3.2
		C928.1,242.4,923.8,238.6,923.8,232.8z"/>
</g>
<g class="st7">
	<path class="st6" d="M768.2,277.3v-16.5h-5.9v-2.1h14.1v2.1h-5.9v16.5H768.2z"/>
	<path class="st6" d="M777.9,268c0-5.5,3.7-9.6,9.2-9.6c5.5,0,9.2,4.1,9.2,9.6c0,5.5-3.7,9.6-9.2,9.6
		C781.6,277.6,777.9,273.5,777.9,268z M793.9,268c0-4.3-2.7-7.5-6.8-7.5c-4.2,0-6.8,3.2-6.8,7.5c0,4.3,2.6,7.5,6.8,7.5
		C791.3,275.5,793.9,272.3,793.9,268z"/>
	<path class="st6" d="M811.7,277.3v-16.5h-5.9v-2.1h14.1v2.1H814v16.5H811.7z"/>
	<path class="st6" d="M823,270.1v-11.3h2.3V270c0,3.4,1.8,5.5,5.3,5.5c3.4,0,5.3-2.1,5.3-5.5v-11.3h2.3V270c0,4.6-2.5,7.6-7.6,7.6
		C825.5,277.6,823,274.6,823,270.1z"/>
	<path class="st6" d="M853.2,277.3l-4.7-7.4h-3.7v7.4h-2.3v-18.6h7.5c3.4,0,5.8,2.2,5.8,5.6c0,3.3-2.3,5.2-4.8,5.4l5,7.6H853.2z
		 M853.3,264.3c0-2.1-1.5-3.5-3.7-3.5h-4.9v7.1h4.9C851.8,267.9,853.3,266.4,853.3,264.3z"/>
	<path class="st6" d="M872.5,277.3l-10.8-14.8v14.8h-2.3v-18.6h2.4l10.7,14.5v-14.5h2.3v18.6H872.5z"/>
</g>
<polyline class="st8" points="314.3,278 293.1,299.2 314.2,320.2 "/>
<polyline class="st8" points="638,278 659.2,299.2 638.1,320.2 "/>
</svg>
