<?xml version="1.0" encoding="utf-8"?>
<!-- Generator: Adobe Illustrator 21.0.2, SVG Export Plug-In . SVG Version: 6.00 Build 0)  -->
<svg version="1.1" id="Layer_1" xmlns="http://www.w3.org/2000/svg" xmlns:xlink="http://www.w3.org/1999/xlink" x="0px" y="0px"
	 viewBox="0 0 30 30" style="enable-background:new 0 0 30 30;" xml:space="preserve">
<style type="text/css">
	.st0{fill:#FFFFFF;}
</style>
<g transform="translate(0,-952.36218)">
	<path class="st0" d="M10.1,953.8c-1.9,0-3.4,1.5-3.4,3.4v20.3c0,1.9,1.5,3.4,3.4,3.4h9.8c1.9,0,3.4-1.5,3.4-3.4v-20.3
		c0-1.9-1.5-3.4-3.4-3.4H10.1z M10.1,955.1h9.8c1.1,0,2,0.8,2.1,1.8H8C8.1,955.9,9,955.1,10.1,955.1z M7.9,958.1h14.1v17.2H7.9
		V958.1z M7.9,976.6h14.1v0.9c0,1.2-0.9,2.2-2.2,2.2h-9.8c-1.2,0-2.2-0.9-2.2-2.2V976.6z M15,977.2c-0.5,0-0.9,0.4-0.9,0.9
		c0,0.5,0.4,0.9,0.9,0.9c0.5,0,0.9-0.4,0.9-0.9C15.9,977.6,15.5,977.2,15,977.2z"/>
</g>
</svg>
