<?xml version="1.0" encoding="utf-8"?>
<!-- Generator: Adobe Illustrator 21.0.2, SVG Export Plug-In . SVG Version: 6.00 Build 0)  -->
<svg version="1.1" id="Layer_1" xmlns="http://www.w3.org/2000/svg" xmlns:xlink="http://www.w3.org/1999/xlink" x="0px" y="0px"
	 viewBox="0 0 30 30" style="enable-background:new 0 0 30 30;" xml:space="preserve">
<style type="text/css">
	.st0{fill:#FFFFFF;}
</style>
<g>
	<path class="st0" d="M27,23.3h-6.6c-0.9,0-1.6-0.7-1.9-1.4l-1.9-4.7c-0.2-0.5-0.8-1-1.5-1c-0.7,0-1.3,0.4-1.5,1l-1.9,4.6
		c-0.4,0.9-1.1,1.4-2.1,1.4H2.9c-1.2,0-2.2-1-2.2-2.2V7c0-1.2,0.9-2.2,2.1-2.2h24.3c0.6,0,1.2,0.2,1.6,0.7c0.4,0.4,0.6,1,0.5,1.6
		l0,14C29.2,22.3,28.2,23.3,27,23.3z M15,15.2c1,0,2.1,0.7,2.5,1.6l1.9,4.7c0.2,0.4,0.7,0.8,1,0.8H27c0.8,0,1.2-0.6,1.2-1.2V7
		c0-0.3-0.1-0.6-0.2-0.8c-0.2-0.2-0.5-0.4-0.9-0.4H2.8C2.2,5.8,1.7,6.3,1.7,7v14c0,0.6,0.6,1.2,1.2,1.2h6.6c0.5,0,0.9-0.3,1.1-0.8
		l1.9-4.6C12.9,15.8,13.9,15.2,15,15.2z M21.3,17.6c-2,0-3.6-1.6-3.6-3.6s1.6-3.6,3.6-3.6c2,0,3.6,1.6,3.6,3.6
		C24.8,16,23.2,17.6,21.3,17.6z M21.3,11.4c-1.4,0-2.6,1.2-2.6,2.6s1.2,2.6,2.6,2.6c1.4,0,2.5-1.1,2.6-2.6
		C23.9,12.6,22.7,11.4,21.3,11.4z M8.7,17.6c-2,0-3.6-1.6-3.6-3.6s1.6-3.6,3.6-3.6s3.6,1.6,3.6,3.6S10.7,17.6,8.7,17.6z M8.7,11.4
		c-1.4,0-2.6,1.2-2.6,2.6s1.2,2.6,2.6,2.6s2.6-1.2,2.6-2.6S10.1,11.4,8.7,11.4z"/>
</g>
</svg>
