<?xml version="1.0" encoding="utf-8"?>
<!-- Generator: Adobe Illustrator 21.0.2, SVG Export Plug-In . SVG Version: 6.00 Build 0)  -->
<svg version="1.1" id="Layer_1" xmlns="http://www.w3.org/2000/svg" xmlns:xlink="http://www.w3.org/1999/xlink" x="0px" y="0px"
	 viewBox="0 0 30 30" style="enable-background:new 0 0 30 30;" xml:space="preserve">
<style type="text/css">
	.st0{fill:#FFFFFF;}
</style>
<g>
	<path class="st0" d="M29.1,14l-3.2-3.2c-0.2-0.2-0.6-0.2-0.8,0L23.8,12c-0.2,0.2-0.2,0.6,0,0.8L26,15l-2.2,2.2
		c-0.2,0.2-0.2,0.6,0,0.8l1.2,1.2c0.2,0.2,0.6,0.2,0.8,0l3.2-3.2C29.7,15.5,29.7,14.5,29.1,14z"/>
	<path class="st0" d="M6.2,12L5,10.8c-0.2-0.2-0.6-0.2-0.8,0L0.9,14c-0.6,0.6-0.6,1.5,0,2.1l3.2,3.2c0.2,0.2,0.6,0.2,0.8,0L6.2,18
		c0.2-0.2,0.2-0.6,0-0.8L4,15l2.2-2.2C6.4,12.6,6.4,12.2,6.2,12z"/>
	<path class="st0" d="M18,23.8c-0.2-0.2-0.6-0.2-0.8,0L15,26l-2.2-2.2c-0.2-0.2-0.6-0.2-0.8,0L10.8,25c-0.2,0.2-0.2,0.6,0,0.8
		l3.2,3.2c0.3,0.3,0.7,0.4,1,0.4s0.7-0.1,1-0.4l3.2-3.2c0.2-0.2,0.2-0.6,0-0.8L18,23.8z"/>
	<path class="st0" d="M16,0.9c-0.6-0.6-1.5-0.6-2.1,0l-3.2,3.2c-0.2,0.2-0.2,0.6,0,0.8L12,6.2c0.2,0.2,0.6,0.2,0.8,0L15,4l2.2,2.2
		c0.2,0.2,0.6,0.2,0.8,0L19.2,5c0.2-0.2,0.2-0.6,0-0.8L16,0.9z"/>
	<circle class="st0" cx="15" cy="15" r="2.9"/>
</g>
</svg>
