<?xml version="1.0" encoding="utf-8"?>
<!-- Generator: Adobe Illustrator 21.0.2, SVG Export Plug-In . SVG Version: 6.00 Build 0)  -->
<svg version="1.1" id="Layer_1" xmlns="http://www.w3.org/2000/svg" xmlns:xlink="http://www.w3.org/1999/xlink" x="0px" y="0px"
	 viewBox="0 0 938 830" style="enable-background:new 0 0 938 830;" xml:space="preserve">
<style type="text/css">
	.st0{fill:none;stroke:#ECEBA9;stroke-miterlimit:10;}
	.st1{fill:none;stroke:#ECEBA9;stroke-miterlimit:10;stroke-dasharray:2.0106,2.0106;}
	.st2{fill:none;stroke:#ECEBA9;stroke-miterlimit:10;stroke-dasharray:1.9149,1.9149;}
	.st3{fill:#FFFFFF;}
	.st4{fill:#ECEBA9;}
	.st5{fill:none;stroke:#ECEBA9;stroke-miterlimit:10;stroke-dasharray:2.0212,2.0212;}
	.st6{fill:none;stroke:#ECEBA9;stroke-width:2;stroke-miterlimit:10;}
	.st7{fill:none;stroke:#FFFFFF;stroke-width:2;stroke-miterlimit:10;}
	.st8{fill:none;stroke:#FFFFFF;stroke-width:0.75;stroke-miterlimit:10;}
	.st9{fill:none;stroke:#FFFFFF;stroke-miterlimit:10;}
</style>
<g>
	<g>
		<line class="st0" x1="240.9" y1="252.5" x2="241.9" y2="252.5"/>
		<line class="st1" x1="243.9" y1="252.5" x2="468.1" y2="252.5"/>
		<polyline class="st0" points="469.1,252.5 470.1,252.5 470.1,253.5 		"/>
		<line class="st2" x1="470.1" y1="255.4" x2="470.1" y2="285.1"/>
		<line class="st0" x1="470.1" y1="286" x2="470.1" y2="287"/>
		<g>
			<g>
				<circle class="st3" cx="241.1" cy="252.5" r="3.8"/>
				<path class="st4" d="M241.1,256.8c2.3,0,4.3-1.9,4.3-4.3s-1.9-4.3-4.3-4.3c-2.3,0-4.3,1.9-4.3,4.3S238.8,256.8,241.1,256.8
					C243.5,256.8,238.8,256.8,241.1,256.8z M241.1,249.2c1.8,0,3.3,1.5,3.3,3.3s-1.5,3.3-3.3,3.3s-3.3-1.5-3.3-3.3
					S239.3,249.2,241.1,249.2S239.3,249.2,241.1,249.2z"/>
			</g>
		</g>
	</g>
</g>
<g>
	<g>
		<line class="st0" x1="692.4" y1="360.7" x2="691.4" y2="360.7"/>
		<line class="st5" x1="689.4" y1="360.7" x2="609.5" y2="360.7"/>
		<polyline class="st0" points="608.5,360.7 607.5,360.7 607.5,361.7 		"/>
		<line class="st2" x1="607.5" y1="363.6" x2="607.5" y2="393.3"/>
		<line class="st0" x1="607.5" y1="394.2" x2="607.5" y2="395.2"/>
		<g>
			<g>
				<circle class="st3" cx="692.2" cy="360.7" r="3.8"/>
				<path class="st4" d="M692.2,356.4c-2.3,0-4.3,1.9-4.3,4.3s1.9,4.3,4.3,4.3s4.3-1.9,4.3-4.3S694.5,356.4,692.2,356.4
					S694.5,356.4,692.2,356.4z M692.2,363.9c-1.8,0-3.3-1.5-3.3-3.3s1.5-3.3,3.3-3.3s3.3,1.5,3.3,3.3S694,363.9,692.2,363.9
					S694,363.9,692.2,363.9z"/>
			</g>
		</g>
	</g>
</g>
<g>
	<path class="st4" d="M23.8,207.3v-18.6h7.5c3.7,0,5.8,2.6,5.8,5.6s-2.1,5.6-5.8,5.6h-5.1v7.4H23.8z M34.6,194.4
		c0-2.1-1.5-3.5-3.7-3.5h-4.9v7.1h4.9C33.1,197.9,34.6,196.5,34.6,194.4z"/>
	<path class="st4" d="M51.1,207.3l-4.7-7.4h-3.7v7.4h-2.3v-18.6h7.5c3.4,0,5.8,2.2,5.8,5.6c0,3.3-2.3,5.2-4.8,5.4l5,7.6H51.1z
		 M51.3,194.4c0-2.1-1.5-3.5-3.7-3.5h-4.9v7.1h4.9C49.8,197.9,51.3,196.5,51.3,194.4z"/>
	<path class="st4" d="M57.6,207.3v-18.6h12.2v2.1h-9.8v6h9.7v2.1h-9.7v6.4h9.8v2.1H57.6z"/>
	<path class="st4" d="M72.6,204.7l1.4-1.8c1.2,1.4,3.2,2.6,5.8,2.6c3.3,0,4.4-1.8,4.4-3.2c0-4.8-11-2.1-11-8.8
		c0-3.1,2.7-5.1,6.4-5.1c2.8,0,5,0.9,6.6,2.6l-1.4,1.7c-1.4-1.5-3.3-2.2-5.4-2.2c-2.2,0-3.8,1.2-3.8,2.9c0,4.2,11,1.8,11,8.7
		c0,2.7-1.8,5.5-6.8,5.5C76.5,207.7,74.1,206.4,72.6,204.7z"/>
	<path class="st4" d="M89.1,204.7l1.4-1.8c1.2,1.4,3.2,2.6,5.8,2.6c3.3,0,4.4-1.8,4.4-3.2c0-4.8-11-2.1-11-8.8
		c0-3.1,2.7-5.1,6.4-5.1c2.8,0,5,0.9,6.6,2.6l-1.4,1.7c-1.4-1.5-3.3-2.2-5.4-2.2c-2.2,0-3.8,1.2-3.8,2.9c0,4.2,11,1.8,11,8.7
		c0,2.7-1.8,5.5-6.8,5.5C93,207.7,90.7,206.4,89.1,204.7z"/>
	<path class="st4" d="M126.3,207.3c-0.6-0.5-1.3-1.2-2-1.9c-1.4,1.4-3.1,2.3-5.3,2.3c-3.2,0-5.8-1.7-5.8-5.2c0-2.9,1.9-4.4,4.1-5.5
		c-0.8-1.4-1.4-2.9-1.4-4.2c0-2.5,2.1-4.3,4.7-4.3c2.4,0,4.2,1.3,4.2,3.6c0,2.8-2.4,4-4.7,5.2c0.8,1,1.5,1.9,2.1,2.6
		c0.8,0.9,1.5,1.7,2.2,2.5c1-1.5,1.7-3.2,2-4.2l1.8,0.8c-0.6,1.5-1.4,3.2-2.5,4.8c1.1,1.1,2.3,2.3,3.6,3.5H126.3z M123,204.1
		c-1.1-1.1-2-2.2-2.6-2.8c-0.8-0.9-1.6-1.9-2.3-2.9c-1.5,0.9-2.7,2.1-2.7,4c0,2.3,1.8,3.6,3.7,3.6
		C120.6,205.9,121.9,205.2,123,204.1z M119.1,196c2-1,3.7-2,3.7-3.8c0-1.4-0.9-2.1-2.2-2.1c-1.4,0-2.6,1.1-2.6,2.7
		C118,193.8,118.4,195,119.1,196z"/>
	<path class="st4" d="M153,207.3v-8.5h-10.8v8.5h-2.3v-18.6h2.3v8H153v-8h2.3v18.6H153z"/>
	<path class="st4" d="M159.2,198.1c0-5.5,3.7-9.6,9.2-9.6c5.5,0,9.2,4.1,9.2,9.6c0,5.5-3.7,9.6-9.2,9.6
		C162.9,207.7,159.2,203.5,159.2,198.1z M175.2,198.1c0-4.3-2.7-7.5-6.8-7.5c-4.2,0-6.8,3.2-6.8,7.5c0,4.3,2.6,7.5,6.8,7.5
		C172.5,205.6,175.2,202.4,175.2,198.1z"/>
	<path class="st4" d="M181.5,207.3v-18.6h2.3v16.5h8.6v2.1H181.5z"/>
	<path class="st4" d="M196,207.3v-18.6h6.3c5.8,0,9.5,4,9.5,9.3c0,5.3-3.8,9.3-9.5,9.3H196z M209.4,198.1c0-4-2.5-7.2-7.1-7.2h-4
		v14.4h4C206.8,205.3,209.4,202,209.4,198.1z"/>
	<path class="st4" d="M11.1,242.5V226H5.2V224h14.1v2.1h-5.9v16.5H11.1z"/>
	<path class="st4" d="M35.8,242.5V234H24.9v8.5h-2.3V224h2.3v8h10.8v-8h2.3v18.6H35.8z"/>
	<path class="st4" d="M42.7,242.5V224h12.2v2.1H45v6h9.7v2.1H45v6.4h9.8v2.1H42.7z"/>
	<path class="st4" d="M65.2,239.9l1.4-1.8c1.2,1.4,3.2,2.6,5.8,2.6c3.3,0,4.4-1.8,4.4-3.2c0-4.8-11-2.1-11-8.8
		c0-3.1,2.7-5.1,6.4-5.1c2.8,0,5,0.9,6.6,2.6l-1.4,1.7c-1.4-1.5-3.3-2.2-5.4-2.2c-2.2,0-3.8,1.2-3.8,2.9c0,4.2,11,1.8,11,8.7
		c0,2.7-1.8,5.5-6.8,5.5C69.1,242.9,66.7,241.7,65.2,239.9z"/>
	<path class="st4" d="M82.1,233.3c0-5.7,4.2-9.6,9.5-9.6c3.3,0,5.6,1.6,7,3.7l-1.9,1.1c-1.1-1.6-3-2.7-5.1-2.7
		c-4.1,0-7.1,3.1-7.1,7.5c0,4.4,3.1,7.5,7.1,7.5c2.1,0,4-1.1,5.1-2.7l2,1.1c-1.6,2.1-3.8,3.7-7.1,3.7
		C86.3,242.9,82.1,239,82.1,233.3z"/>
	<path class="st4" d="M112.7,242.5l-4.7-7.4h-3.7v7.4h-2.3V224h7.5c3.4,0,5.8,2.2,5.8,5.6c0,3.3-2.3,5.2-4.8,5.4l5,7.6H112.7z
		 M112.8,229.6c0-2.1-1.5-3.5-3.7-3.5h-4.9v7.1h4.9C111.3,233.1,112.8,231.7,112.8,229.6z"/>
	<path class="st4" d="M119.1,242.5V224h12.2v2.1h-9.8v6h9.7v2.1h-9.7v6.4h9.8v2.1H119.1z"/>
	<path class="st4" d="M135.2,242.5V224h12.2v2.1h-9.8v6h9.7v2.1h-9.7v6.4h9.8v2.1H135.2z"/>
	<path class="st4" d="M164.5,242.5l-10.8-14.8v14.8h-2.3V224h2.4l10.7,14.5V224h2.3v18.6H164.5z"/>
	<path class="st4" d="M183.4,242.5V226h-5.9V224h14.1v2.1h-5.9v16.5H183.4z"/>
	<path class="st4" d="M193.4,233.3c0-5.5,3.7-9.6,9.2-9.6c5.5,0,9.2,4.1,9.2,9.6c0,5.5-3.7,9.6-9.2,9.6
		C197.1,242.9,193.4,238.8,193.4,233.3z M209.4,233.3c0-4.3-2.7-7.5-6.8-7.5c-4.2,0-6.8,3.2-6.8,7.5c0,4.3,2.6,7.5,6.8,7.5
		C206.8,240.8,209.4,237.6,209.4,233.3z"/>
	<path class="st4" d="M42.2,268.5c0-5.8,4.3-9.6,9.5-9.6c3.3,0,5.6,1.4,7.2,3.5l-1.8,1.1C56,262,54,261,51.8,261
		c-4.1,0-7.1,3.1-7.1,7.5c0,4.4,3.1,7.6,7.1,7.6c2.2,0,4.1-1.1,5-2v-3.8h-6.4v-2.1H59v6.7c-1.7,1.9-4.3,3.2-7.3,3.2
		C46.5,278.1,42.2,274.3,42.2,268.5z"/>
	<path class="st4" d="M62.3,268.5c0-5.5,3.7-9.6,9.2-9.6c5.5,0,9.2,4.1,9.2,9.6c0,5.5-3.7,9.6-9.2,9.6C66,278.1,62.3,274,62.3,268.5
		z M78.4,268.5c0-4.3-2.7-7.5-6.8-7.5c-4.2,0-6.8,3.2-6.8,7.5c0,4.3,2.6,7.5,6.8,7.5C75.7,276,78.4,272.8,78.4,268.5z"/>
	<path class="st4" d="M92.1,277.8v-18.6h2.3v18.6H92.1z"/>
	<path class="st4" d="M112.1,277.8L101.3,263v14.8H99v-18.6h2.4l10.7,14.5v-14.5h2.3v18.6H112.1z"/>
	<path class="st4" d="M123.6,277.8v-16.5h-5.9v-2.1h14.1v2.1h-5.9v16.5H123.6z"/>
	<path class="st4" d="M133.6,268.5c0-5.5,3.7-9.6,9.2-9.6c5.5,0,9.2,4.1,9.2,9.6c0,5.5-3.7,9.6-9.2,9.6
		C137.3,278.1,133.6,274,133.6,268.5z M149.6,268.5c0-4.3-2.7-7.5-6.8-7.5c-4.2,0-6.8,3.2-6.8,7.5c0,4.3,2.6,7.5,6.8,7.5
		C147,276,149.6,272.8,149.6,268.5z"/>
	<path class="st4" d="M168,277.8v-16.5h-5.9v-2.1h14.1v2.1h-5.9v16.5H168z"/>
	<path class="st4" d="M192.7,277.8v-8.5h-10.8v8.5h-2.3v-18.6h2.3v8h10.8v-8h2.3v18.6H192.7z"/>
	<path class="st4" d="M199.6,277.8v-18.6h12.2v2.1h-9.8v6h9.7v2.1h-9.7v6.4h9.8v2.1H199.6z"/>
	<path class="st4" d="M24.5,294.1l1,0.8c-0.9,0.6-1.7,1.7-1.8,2.6c0.1,0,0.3,0,0.4,0c0.8,0,1.4,0.6,1.4,1.4c0,0.8-0.7,1.5-1.5,1.5
		c-0.9,0-1.8-0.8-1.8-2.1C22.2,296.6,23.2,295.1,24.5,294.1z"/>
	<path class="st4" d="M42.9,313l-10.8-14.8V313h-2.3v-18.6h2.4l10.7,14.5v-14.5h2.3V313H42.9z"/>
	<path class="st4" d="M49.7,313v-18.6h12.2v2.1H52v6h9.7v2.1H52v6.4h9.8v2.1H49.7z"/>
	<path class="st4" d="M65.1,303.7c0-5.5,3.7-9.6,9.2-9.6c5.5,0,9.2,4.1,9.2,9.6c0,5.5-3.7,9.6-9.2,9.6
		C68.8,313.3,65.1,309.2,65.1,303.7z M81.1,303.7c0-4.3-2.7-7.5-6.8-7.5c-4.2,0-6.8,3.2-6.8,7.5c0,4.3,2.6,7.5,6.8,7.5
		C78.4,311.2,81.1,308,81.1,303.7z"/>
	<path class="st4" d="M100.5,313l-10.8-14.8V313h-2.3v-18.6h2.4l10.7,14.5v-14.5h2.3V313H100.5z"/>
	<path class="st4" d="M114.8,313v-18.6h2.3v16.5h8.6v2.1H114.8z"/>
	<path class="st4" d="M129.3,313v-18.6h2.3V313H129.3z"/>
	<path class="st4" d="M135.5,303.7c0-5.8,4.3-9.6,9.5-9.6c3.3,0,5.6,1.4,7.2,3.5l-1.8,1.1c-1.2-1.5-3.1-2.6-5.4-2.6
		c-4.1,0-7.1,3.1-7.1,7.5c0,4.4,3.1,7.6,7.1,7.6c2.2,0,4.1-1.1,5-2v-3.8h-6.4v-2.1h8.7v6.7c-1.7,1.9-4.3,3.2-7.3,3.2
		C139.7,313.3,135.5,309.5,135.5,303.7z"/>
	<path class="st4" d="M169.5,313v-8.5h-10.8v8.5h-2.3v-18.6h2.3v8h10.8v-8h2.3V313H169.5z"/>
	<path class="st4" d="M181,313v-16.5h-5.9v-2.1h14.1v2.1h-5.9V313H181z"/>
	<path class="st4" d="M191.3,310.4l1.4-1.8c1.2,1.4,3.2,2.6,5.8,2.6c3.3,0,4.4-1.8,4.4-3.2c0-4.8-11-2.1-11-8.8
		c0-3.1,2.7-5.1,6.4-5.1c2.8,0,5,0.9,6.6,2.6l-1.4,1.7c-1.4-1.5-3.3-2.2-5.4-2.2c-2.2,0-3.8,1.2-3.8,2.9c0,4.2,11,1.8,11,8.7
		c0,2.7-1.8,5.5-6.8,5.5C195.2,313.3,192.9,312.1,191.3,310.4z"/>
	<path class="st4" d="M209.5,300.5l-1-0.9c0.9-0.6,1.7-1.7,1.8-2.6c-0.1,0-0.3,0.1-0.4,0.1c-0.8,0-1.3-0.6-1.3-1.4
		c0-0.8,0.6-1.5,1.5-1.5c0.9,0,1.8,0.8,1.8,2.1C211.8,298,210.8,299.5,209.5,300.5z"/>
</g>
<g>
	<path class="st4" d="M720.3,314.7l1.4-1.8c1.2,1.4,3.2,2.6,5.8,2.6c3.3,0,4.4-1.8,4.4-3.2c0-4.8-11-2.1-11-8.8
		c0-3.1,2.7-5.1,6.4-5.1c2.8,0,5,0.9,6.6,2.6l-1.4,1.7c-1.4-1.5-3.3-2.2-5.4-2.2c-2.2,0-3.8,1.2-3.8,2.9c0,4.2,11,1.8,11,8.7
		c0,2.7-1.8,5.5-6.8,5.5C724.2,317.6,721.8,316.4,720.3,314.7z"/>
	<path class="st4" d="M752.2,317.3l-4.1-15l-4.1,15h-2.5l-5.3-18.6h2.6l4.1,15.5l4.3-15.5h1.9l4.3,15.5l4.1-15.5h2.6l-5.3,18.6
		H752.2z"/>
	<path class="st4" d="M762.8,317.3v-18.6h2.3v18.6H762.8z"/>
	<path class="st4" d="M769.8,317.3v-18.6h7.5c3.7,0,5.8,2.6,5.8,5.6s-2.1,5.6-5.8,5.6h-5.1v7.4H769.8z M780.6,304.3
		c0-2.1-1.5-3.5-3.7-3.5h-4.9v7.1h4.9C779.1,307.8,780.6,306.4,780.6,304.3z"/>
	<path class="st4" d="M786.4,317.3v-18.6h12.2v2.1h-9.8v6h9.7v2.1h-9.7v6.4h9.8v2.1H786.4z"/>
	<path class="st4" d="M814.5,317.3v-16.5h-5.9v-2.1h14.1v2.1h-5.9v16.5H814.5z"/>
	<path class="st4" d="M839.2,317.3v-8.5h-10.8v8.5h-2.3v-18.6h2.3v8h10.8v-8h2.3v18.6H839.2z"/>
	<path class="st4" d="M846.1,317.3v-18.6h12.2v2.1h-9.8v6h9.7v2.1h-9.7v6.4h9.8v2.1H846.1z"/>
	<path class="st4" d="M720.3,349.9l1.4-1.8c1.2,1.4,3.2,2.6,5.8,2.6c3.3,0,4.4-1.8,4.4-3.2c0-4.8-11-2.1-11-8.8
		c0-3.1,2.7-5.1,6.4-5.1c2.8,0,5,0.9,6.6,2.6l-1.4,1.7c-1.4-1.5-3.3-2.2-5.4-2.2c-2.2,0-3.8,1.2-3.8,2.9c0,4.2,11,1.8,11,8.7
		c0,2.7-1.8,5.5-6.8,5.5C724.2,352.8,721.8,351.6,720.3,349.9z"/>
	<path class="st4" d="M737.2,343.2c0-5.7,4.2-9.6,9.5-9.6c3.3,0,5.6,1.6,7,3.7l-1.9,1.1c-1.1-1.6-3-2.7-5.1-2.7
		c-4.1,0-7.1,3.1-7.1,7.5c0,4.4,3.1,7.5,7.1,7.5c2.1,0,4-1.1,5.1-2.7l2,1.1c-1.6,2.1-3.8,3.7-7.1,3.7
		C741.4,352.8,737.2,348.9,737.2,343.2z"/>
	<path class="st4" d="M767.8,352.5l-4.7-7.4h-3.7v7.4h-2.3v-18.6h7.5c3.4,0,5.8,2.2,5.8,5.6c0,3.3-2.3,5.2-4.8,5.4l5,7.6H767.8z
		 M768,339.5c0-2.1-1.5-3.5-3.7-3.5h-4.9v7.1h4.9C766.5,343.1,768,341.6,768,339.5z"/>
	<path class="st4" d="M774.3,352.5v-18.6h12.2v2.1h-9.8v6h9.7v2.1h-9.7v6.4h9.8v2.1H774.3z"/>
	<path class="st4" d="M790.4,352.5v-18.6h12.2v2.1h-9.8v6h9.7v2.1h-9.7v6.4h9.8v2.1H790.4z"/>
	<path class="st4" d="M819.6,352.5l-10.8-14.8v14.8h-2.3v-18.6h2.4l10.7,14.5v-14.5h2.3v18.6H819.6z"/>
	<path class="st4" d="M721.4,387.7v-18.6h2.3v16.5h8.6v2.1H721.4z"/>
	<path class="st4" d="M735.9,387.7v-18.6H748v2.1h-9.8v6h9.7v2.1h-9.7v6.4h9.8v2.1H735.9z"/>
	<path class="st4" d="M752,387.7v-18.6h12.2v2.1h-9.8v6h9.7v2.1h-9.7v8.5H752z"/>
	<path class="st4" d="M772.2,387.7v-16.5h-5.9v-2.1h14.1v2.1h-5.9v16.5H772.2z"/>
	<path class="st4" d="M803.1,387.7c-0.6-0.5-1.3-1.2-2-1.9c-1.4,1.4-3.1,2.3-5.3,2.3c-3.2,0-5.8-1.7-5.8-5.2c0-2.9,1.9-4.4,4.1-5.5
		c-0.8-1.4-1.4-2.9-1.4-4.2c0-2.5,2.1-4.3,4.7-4.3c2.4,0,4.2,1.3,4.2,3.6c0,2.8-2.4,4-4.7,5.2c0.8,1,1.5,1.9,2.1,2.6
		c0.8,0.9,1.5,1.7,2.2,2.5c1-1.5,1.7-3.2,2-4.2l1.8,0.8c-0.6,1.5-1.4,3.2-2.5,4.8c1.1,1.1,2.3,2.3,3.6,3.5H803.1z M799.9,384.5
		c-1.1-1.1-2-2.2-2.6-2.8c-0.8-0.9-1.6-1.9-2.3-2.9c-1.5,0.9-2.7,2.1-2.7,4c0,2.3,1.8,3.6,3.7,3.6
		C797.5,386.3,798.8,385.5,799.9,384.5z M795.9,376.4c2-1,3.7-2,3.7-3.8c0-1.4-0.9-2.1-2.2-2.1c-1.4,0-2.6,1.1-2.6,2.7
		C794.8,374.2,795.3,375.3,795.9,376.4z"/>
	<path class="st4" d="M827.5,387.7l-4.7-7.4H819v7.4h-2.3v-18.6h7.5c3.4,0,5.8,2.2,5.8,5.6c0,3.3-2.3,5.2-4.8,5.4l5,7.6H827.5z
		 M827.6,374.7c0-2.1-1.5-3.5-3.7-3.5H819v7.1h4.9C826.1,378.3,827.6,376.8,827.6,374.7z"/>
	<path class="st4" d="M833.9,387.7v-18.6h2.3v18.6H833.9z"/>
	<path class="st4" d="M840.1,378.4c0-5.8,4.3-9.6,9.5-9.6c3.3,0,5.6,1.4,7.2,3.5l-1.8,1.1c-1.2-1.5-3.1-2.6-5.4-2.6
		c-4.1,0-7.1,3.1-7.1,7.5c0,4.4,3.1,7.6,7.1,7.6c2.2,0,4.1-1.1,5-2v-3.8h-6.4v-2.1h8.7v6.7c-1.7,1.9-4.3,3.2-7.3,3.2
		C844.3,388.1,840.1,384.2,840.1,378.4z"/>
	<path class="st4" d="M874.1,387.7v-8.5h-10.8v8.5h-2.3v-18.6h2.3v8h10.8v-8h2.3v18.6H874.1z"/>
	<path class="st4" d="M885.6,387.7v-16.5h-5.9v-2.1h14.1v2.1h-5.9v16.5H885.6z"/>
	<path class="st4" d="M726,422.9v-16.5h-5.9v-2.1h14.1v2.1h-5.9v16.5H726z"/>
	<path class="st4" d="M736,413.7c0-5.5,3.7-9.6,9.2-9.6c5.5,0,9.2,4.1,9.2,9.6c0,5.5-3.7,9.6-9.2,9.6
		C739.7,423.3,736,419.1,736,413.7z M752.1,413.7c0-4.3-2.7-7.5-6.8-7.5c-4.2,0-6.8,3.2-6.8,7.5c0,4.3,2.6,7.5,6.8,7.5
		C749.4,421.2,752.1,418,752.1,413.7z"/>
	<path class="st4" d="M770.4,422.9v-16.5h-5.9v-2.1h14.1v2.1h-5.9v16.5H770.4z"/>
	<path class="st4" d="M781.9,415.7v-11.3h2.3v11.3c0,3.4,1.8,5.5,5.3,5.5c3.4,0,5.3-2.1,5.3-5.5v-11.3h2.3v11.3
		c0,4.6-2.5,7.6-7.6,7.6C784.5,423.3,781.9,420.3,781.9,415.7z"/>
	<path class="st4" d="M812.4,422.9l-4.7-7.4H804v7.4h-2.3v-18.6h7.5c3.4,0,5.8,2.2,5.8,5.6c0,3.3-2.3,5.2-4.8,5.4l5,7.6H812.4z
		 M812.6,410c0-2.1-1.5-3.5-3.7-3.5H804v7.1h4.9C811.1,413.5,812.6,412,812.6,410z"/>
	<path class="st4" d="M832,422.9l-10.8-14.8v14.8h-2.3v-18.6h2.4l10.7,14.5v-14.5h2.3v18.6H832z"/>
</g>
<g>
	<path class="st4" d="M178.6,813.3l-4.7-7.4h-3.7v7.4h-2.3v-18.6h7.5c3.4,0,5.8,2.2,5.8,5.6c0,3.3-2.3,5.2-4.8,5.4l5,7.6H178.6z
		 M178.7,800.3c0-2.1-1.5-3.5-3.7-3.5h-4.9v7.1h4.9C177.2,803.9,178.7,802.4,178.7,800.3z"/>
	<path class="st4" d="M184.3,804c0-5.5,3.7-9.6,9.2-9.6c5.5,0,9.2,4.1,9.2,9.6c0,5.5-3.7,9.6-9.2,9.6
		C188,813.6,184.3,809.5,184.3,804z M200.3,804c0-4.3-2.7-7.5-6.8-7.5c-4.2,0-6.8,3.2-6.8,7.5c0,4.3,2.6,7.5,6.8,7.5
		C197.6,811.6,200.3,808.3,200.3,804z"/>
	<path class="st4" d="M210.4,813.3v-16.5h-5.9v-2.1h14.1v2.1h-5.9v16.5H210.4z"/>
	<path class="st4" d="M233.4,813.3l-1.6-4.1h-9.2l-1.6,4.1h-2.6l7.5-18.6h2.9l7.5,18.6H233.4z M227.1,797.1l-3.9,10h7.9L227.1,797.1
		z"/>
	<path class="st4" d="M241.4,813.3v-16.5h-5.9v-2.1h14.1v2.1h-5.9v16.5H241.4z"/>
	<path class="st4" d="M253,813.3v-18.6h12.2v2.1h-9.8v6h9.7v2.1h-9.7v6.4h9.8v2.1H253z"/>
	<path class="st4" d="M281.9,813.3v-7.8l-7.3-10.7h2.7l5.8,8.6l5.8-8.6h2.7l-7.3,10.7v7.8H281.9z"/>
	<path class="st4" d="M292.4,804c0-5.5,3.7-9.6,9.2-9.6c5.5,0,9.2,4.1,9.2,9.6c0,5.5-3.7,9.6-9.2,9.6
		C296.1,813.6,292.4,809.5,292.4,804z M308.4,804c0-4.3-2.7-7.5-6.8-7.5c-4.2,0-6.8,3.2-6.8,7.5c0,4.3,2.6,7.5,6.8,7.5
		C305.7,811.6,308.4,808.3,308.4,804z"/>
	<path class="st4" d="M314.7,806.1v-11.3h2.3V806c0,3.4,1.8,5.5,5.3,5.5c3.4,0,5.3-2.1,5.3-5.5v-11.3h2.3v11.3
		c0,4.6-2.5,7.6-7.6,7.6C317.2,813.6,314.7,810.6,314.7,806.1z"/>
	<path class="st4" d="M345.2,813.3l-4.7-7.4h-3.7v7.4h-2.3v-18.6h7.5c3.4,0,5.8,2.2,5.8,5.6c0,3.3-2.3,5.2-4.8,5.4l5,7.6H345.2z
		 M345.3,800.3c0-2.1-1.5-3.5-3.7-3.5h-4.9v7.1h4.9C343.8,803.9,345.3,802.4,345.3,800.3z"/>
	<path class="st4" d="M359.1,813.3v-18.6h6.3c5.8,0,9.5,4,9.5,9.3c0,5.3-3.8,9.3-9.5,9.3H359.1z M372.5,804c0-4-2.5-7.2-7.1-7.2h-4
		v14.4h4C369.9,811.2,372.5,808,372.5,804z"/>
	<path class="st4" d="M378.8,813.3v-18.6H391v2.1h-9.8v6h9.7v2.1h-9.7v6.4h9.8v2.1H378.8z"/>
	<path class="st4" d="M400.5,813.3l-7.5-18.6h2.6l6.3,16l6.3-16h2.6l-7.5,18.6H400.5z"/>
	<path class="st4" d="M413.5,813.3v-18.6h2.3v18.6H413.5z"/>
	<path class="st4" d="M419.7,804c0-5.7,4.2-9.6,9.5-9.6c3.3,0,5.6,1.6,7,3.7l-1.9,1.1c-1.1-1.6-3-2.7-5.1-2.7
		c-4.1,0-7.1,3.1-7.1,7.5c0,4.4,3.1,7.5,7.1,7.5c2.1,0,4-1.1,5.1-2.7l2,1.1c-1.6,2.1-3.8,3.7-7.1,3.7
		C423.9,813.6,419.7,809.7,419.7,804z"/>
	<path class="st4" d="M439.5,813.3v-18.6h12.2v2.1h-9.8v6h9.7v2.1h-9.7v6.4h9.8v2.1H439.5z"/>
	<path class="st4" d="M467.7,813.3v-16.5h-5.9v-2.1h14.1v2.1H470v16.5H467.7z"/>
	<path class="st4" d="M477.7,804c0-5.5,3.7-9.6,9.2-9.6c5.5,0,9.2,4.1,9.2,9.6c0,5.5-3.7,9.6-9.2,9.6
		C481.4,813.6,477.7,809.5,477.7,804z M493.7,804c0-4.3-2.7-7.5-6.8-7.5c-4.2,0-6.8,3.2-6.8,7.5c0,4.3,2.6,7.5,6.8,7.5
		C491.1,811.6,493.7,808.3,493.7,804z"/>
	<path class="st4" d="M506.4,810.7l1.4-1.8c1.2,1.4,3.2,2.6,5.8,2.6c3.3,0,4.4-1.8,4.4-3.2c0-4.8-11-2.1-11-8.8
		c0-3.1,2.7-5.1,6.4-5.1c2.8,0,5,0.9,6.6,2.6l-1.4,1.7c-1.4-1.5-3.3-2.2-5.4-2.2c-2.2,0-3.8,1.2-3.8,2.9c0,4.2,11,1.8,11,8.7
		c0,2.7-1.8,5.5-6.8,5.5C510.2,813.6,507.9,812.4,506.4,810.7z"/>
	<path class="st4" d="M524,813.3v-18.6h12.2v2.1h-9.8v6h9.7v2.1h-9.7v6.4h9.8v2.1H524z"/>
	<path class="st4" d="M540.2,813.3v-18.6h12.2v2.1h-9.8v6h9.7v2.1h-9.7v6.4h9.8v2.1H540.2z"/>
	<path class="st4" d="M563.7,813.3v-18.6h2.3v18.6H563.7z"/>
	<path class="st4" d="M583.8,813.3l-10.8-14.8v14.8h-2.3v-18.6h2.4l10.7,14.5v-14.5h2.3v18.6H583.8z"/>
	<path class="st4" d="M596.7,810.6l1.4-1.4c1.1,1.4,3,2.4,5.2,2.4c2.7,0,4.3-1.3,4.3-3.5c0-2.3-1.9-3.3-4.6-3.3c-0.8,0-1.6,0-1.9,0
		v-2.1c0.3,0,1.2,0,1.9,0c2.3,0,4.3-0.9,4.3-3.1c0-2.1-1.9-3.2-4.1-3.2c-2,0-3.5,0.8-4.9,2.3l-1.3-1.4c1.3-1.6,3.5-2.9,6.3-2.9
		c3.6,0,6.3,1.8,6.3,5c0,2.7-2.3,4-4,4.3c1.7,0.1,4.3,1.6,4.3,4.6c0,3.1-2.5,5.3-6.6,5.3C600.2,813.6,597.8,812.2,596.7,810.6z"/>
	<path class="st4" d="M613.1,804.1c0-5,2.3-9.6,7.5-9.6c2.4,0,4,0.9,5.1,2.2l-1.2,1.7c-0.9-1.1-2-1.9-4-1.9c-3.6,0-5.2,3.6-5.2,7.3
		c0,0.3,0,0.5,0,0.7c0.8-1.3,2.9-2.9,5.3-2.9c3.3,0,6.1,2,6.1,5.9c0,3.2-2.4,6.1-6.5,6.1C615.1,813.6,613.1,809.1,613.1,804.1z
		 M624.4,807.6c0-2.7-1.9-4-4.3-4c-1.8,0-3.6,1.1-4.6,2.8c0.2,2.3,1.4,5.1,4.7,5.1C623,811.6,624.4,809.4,624.4,807.6z"/>
	<path class="st4" d="M629.8,804c0-4.5,2-9.6,7.1-9.6c5.1,0,7.1,5,7.1,9.6c0,4.5-2,9.6-7.1,9.6C631.8,813.6,629.8,808.5,629.8,804z
		 M641.6,804c0-3.7-1.2-7.5-4.7-7.5c-3.5,0-4.7,3.8-4.7,7.5c0,3.7,1.2,7.5,4.7,7.5C640.4,811.6,641.6,807.7,641.6,804z"/>
	<path class="st4" d="M655.3,813.3v-18.6h6.3c5.8,0,9.5,4,9.5,9.3c0,5.3-3.8,9.3-9.5,9.3H655.3z M668.8,804c0-4-2.5-7.2-7.1-7.2h-4
		v14.4h4C666.2,811.2,668.8,808,668.8,804z"/>
	<path class="st4" d="M675.1,813.3v-18.6h12.2v2.1h-9.8v6h9.7v2.1h-9.7v6.4h9.8v2.1H675.1z"/>
	<path class="st4" d="M690.4,804c0-5.8,4.3-9.6,9.5-9.6c3.3,0,5.6,1.4,7.2,3.5l-1.8,1.1c-1.2-1.5-3.1-2.6-5.4-2.6
		c-4.1,0-7.1,3.1-7.1,7.5c0,4.4,3.1,7.6,7.1,7.6c2.2,0,4.1-1.1,5-2v-3.8h-6.4v-2.1h8.7v6.7c-1.7,1.9-4.3,3.2-7.3,3.2
		C694.7,813.6,690.4,809.8,690.4,804z"/>
	<path class="st4" d="M722,813.3l-4.7-7.4h-3.7v7.4h-2.3v-18.6h7.5c3.4,0,5.8,2.2,5.8,5.6c0,3.3-2.3,5.2-4.8,5.4l5,7.6H722z
		 M722.2,800.3c0-2.1-1.5-3.5-3.7-3.5h-4.9v7.1h4.9C720.7,803.9,722.2,802.4,722.2,800.3z"/>
	<path class="st4" d="M728.5,813.3v-18.6h12.2v2.1h-9.8v6h9.7v2.1h-9.7v6.4h9.8v2.1H728.5z"/>
	<path class="st4" d="M744.6,813.3v-18.6h12.2v2.1h-9.8v6h9.7v2.1h-9.7v6.4h9.8v2.1H744.6z"/>
	<path class="st4" d="M759.6,810.7l1.4-1.8c1.2,1.4,3.2,2.6,5.8,2.6c3.3,0,4.4-1.8,4.4-3.2c0-4.8-11-2.1-11-8.8
		c0-3.1,2.7-5.1,6.4-5.1c2.8,0,5,0.9,6.6,2.6l-1.4,1.7c-1.4-1.5-3.3-2.2-5.4-2.2c-2.2,0-3.8,1.2-3.8,2.9c0,4.2,11,1.8,11,8.7
		c0,2.7-1.8,5.5-6.8,5.5C763.5,813.6,761.1,812.4,759.6,810.7z"/>
</g>
<polyline class="st6" points="342.1,385.2 321,406.4 342,427.4 "/>
<polyline class="st6" points="597.9,385.2 619,406.4 598,427.4 "/>
<path class="st7" d="M271.4,703.2V46.1c0-15.8,12.9-28.7,28.7-28.7h338.6c15.8,0,28.7,12.9,28.7,28.7v657.1
	c0,15.8-12.9,28.7-28.7,28.7H300.2C284.4,731.9,271.4,719,271.4,703.2z"/>
<circle class="st8" cx="469.5" cy="680.1" r="28.4"/>
<rect x="199.6" y="176.1" transform="matrix(-1.836970e-16 1 -1 -1.836970e-16 829.0391 -109.8395)" class="st9" width="539.7" height="367"/>
<circle class="st4" cx="469.4" cy="327.1" r="26"/>
<circle class="st6" cx="469.4" cy="327.1" r="40"/>
</svg>
