<?xml version="1.0" encoding="utf-8"?>
<!-- Generator: Adobe Illustrator 21.0.2, SVG Export Plug-In . SVG Version: 6.00 Build 0)  -->
<svg version="1.1" id="Layer_1" xmlns="http://www.w3.org/2000/svg" xmlns:xlink="http://www.w3.org/1999/xlink" x="0px" y="0px"
	 viewBox="0 0 910 240" style="enable-background:new 0 0 910 240;" xml:space="preserve">
<style type="text/css">
	.st0{fill:none;stroke:#FFFFFF;stroke-width:2;stroke-miterlimit:10;}
	.st1{fill:none;stroke:#FFFFFF;}
</style>
<g>
	<path class="st0" d="M6.7,37.9V9.3c0-2.2,1.5-3.9,3.9-3.9c2.2,0,3.8,1.6,3.8,3.9v29.4c0,8.5,5,14.4,14.8,14.4
		c9.7,0,14.8-5.9,14.8-14.4V9.3c0-2.3,1.5-3.9,3.8-3.9c2.4,0,3.9,1.8,3.9,3.9v28.6c0,13.6-8.4,22.2-22.4,22.2
		C15.1,60.1,6.7,51.5,6.7,37.9z"/>
	<path class="st0" d="M110.9,59.8c-1.4,0-2.2-0.5-2.9-1.4L77.5,19.5v36.7c0,2-1.4,3.6-3.7,3.6c-2.2,0-3.6-1.7-3.6-3.6V9
		c0-2.3,1.4-3.7,3.8-3.7c1.2,0,2.2,0.6,2.9,1.5l30.5,38.8V9c0-2.2,1.5-3.7,3.7-3.7s3.6,1.4,3.6,3.7v47.2
		C114.6,58.1,113.3,59.8,110.9,59.8z"/>
	<path class="st0" d="M152.3,59.1h-14.8c-2.2,0-3.9-1.8-3.9-3.9V9.9c0-2.2,1.8-3.9,3.9-3.9h14.8c16.4,0,26.6,11.3,26.6,26.6
		C178.9,47.8,168.7,59.1,152.3,59.1z M152,13h-10.8v39.1H152c12.2,0,19.2-8.1,19.2-19.5S164.2,13,152,13z"/>
	<path class="st0" d="M229.3,59.1h-30.6c-2.3,0-3.9-1.7-3.9-3.8V9.8c0-2.2,1.8-3.8,3.9-3.8h29.4c2,0,3.7,1.5,3.7,3.5
		s-1.7,3.5-3.7,3.5h-25.7v15.4h14.5c1.9,0,3.5,1.5,3.5,3.5c0,2.1-1.6,3.5-3.5,3.5h-14.5v16.7h26.9c2,0,3.7,1.4,3.7,3.5
		C232.9,57.6,231.3,59.1,229.3,59.1z"/>
	<path class="st0" d="M251.5,59.8c-2.3,0-3.9-1.8-3.9-3.9v-46c0-2.3,1.5-3.9,3.9-3.9H273c12.1,0,18.1,6.5,18.1,15.6
		c0,7.1-3.8,12.4-10.9,14.4l8.9,18.3c0.2,0.6,0.4,1.1,0.4,1.7c0,1.9-1.4,3.8-3.8,3.8c-1.8,0-2.8-0.8-3.4-2.2l-10.1-20.7h-16.9v19
		C255.3,58,253.8,59.8,251.5,59.8z M255.3,13v17.2h19.2c5.9,0,8.9-3.8,8.9-8.5s-3-8.6-8.9-8.6H255.3z"/>
	<path class="st0" d="M376.6,59.8c-1.4,0-2.2-0.5-2.9-1.4l-30.6-38.9v36.7c0,2-1.4,3.6-3.7,3.6c-2.2,0-3.6-1.7-3.6-3.6V9
		c0-2.3,1.4-3.7,3.8-3.7c1.2,0,2.2,0.6,2.9,1.5L373,45.6V9c0-2.2,1.5-3.7,3.7-3.7s3.6,1.4,3.6,3.7v47.2
		C380.3,58.1,379,59.8,376.6,59.8z"/>
	<path class="st0" d="M433.8,59.1h-30.6c-2.3,0-3.9-1.7-3.9-3.8V9.8c0-2.2,1.8-3.8,3.9-3.8h29.4c2,0,3.7,1.5,3.7,3.5
		s-1.7,3.5-3.7,3.5H407v15.4h14.5c1.9,0,3.5,1.5,3.5,3.5c0,2.1-1.6,3.5-3.5,3.5H407v16.7h26.9c2,0,3.7,1.4,3.7,3.5
		C437.5,57.6,435.8,59.1,433.8,59.1z"/>
	<path class="st0" d="M473.6,60.1c-16.2,0-27-12.5-27-27.5c0-15,10.8-27.5,27-27.5s27,12.5,27,27.5
		C500.5,47.6,489.8,60.1,473.6,60.1z M473.6,12c-12.4,0-19.3,9.7-19.3,20.6c0,10.9,6.9,20.6,19.3,20.6s19.3-9.7,19.3-20.6
		C492.9,21.6,485.9,12,473.6,12z"/>
	<path class="st0" d="M557.4,59.8c-1.4,0-2.2-0.5-2.9-1.4L524,19.5v36.7c0,2-1.4,3.6-3.7,3.6s-3.6-1.7-3.6-3.6V9
		c0-2.3,1.4-3.7,3.8-3.7c1.2,0,2.2,0.6,2.9,1.5l30.5,38.8V9c0-2.2,1.5-3.7,3.7-3.7s3.6,1.4,3.6,3.7v47.2
		C561.1,58.1,559.8,59.8,557.4,59.8z"/>
	<path class="st0" d="M607.9,55.2v-46c0-2.2,1.5-3.9,3.9-3.9c2.2,0,3.8,1.6,3.8,3.9v42.7H641c1.9,0,3.6,1.5,3.6,3.5
		c0,2.1-1.7,3.7-3.6,3.7h-29.2C609.5,59.1,607.9,57.4,607.9,55.2z"/>
	<path class="st0" d="M663.3,59.8c-2.3,0-3.9-1.8-3.9-3.9V9.3c0-2.2,1.5-3.9,3.9-3.9c2.2,0,3.8,1.6,3.8,3.9v46.6
		C667.1,58,665.6,59.8,663.3,59.8z"/>
	<path class="st0" d="M731.7,51.6c-4.7,5.2-12.4,8.5-21.4,8.5c-16.2,0-27-11.8-27-27.5c0-16.1,11.4-27.5,26.9-27.5
		c6.9,0,13.5,2,18,6.8c0.7,0.7,1.2,1.5,1.2,2.6c0,1.9-1.4,3.5-3.5,3.5c-0.9,0-1.7-0.3-2.6-1c-4.2-3.2-8-4.8-13.2-4.8
		c-11.6,0-19.1,9.1-19.1,20.4c0,11.3,6.7,20.9,19.3,20.9c6,0,11.3-1.8,14.8-4.8v-9.8h-12.7c-1.9,0-3.5-1.5-3.5-3.5s1.6-3.4,3.5-3.4
		h16.4c2.2,0,3.8,1.4,3.8,3.9v13.2C732.6,50.2,732.4,50.9,731.7,51.6z"/>
	<path class="st0" d="M789.5,59.8c-2.2,0-3.8-1.8-3.8-3.9V35.4H757v20.4c0,2.2-1.5,3.9-3.8,3.9c-2.3,0-3.9-1.8-3.9-3.9V9.3
		c0-2.2,1.6-3.9,3.8-3.9s3.8,1.8,3.8,3.9v19h28.6v-19c0-2.2,1.7-3.9,3.8-3.9c2.3,0,3.8,1.8,3.8,3.9v46.6
		C793.3,58,791.7,59.8,789.5,59.8z"/>
	<path class="st0" d="M848.4,13.2h-14.9v42.7c0,2.2-1.5,3.9-3.8,3.9c-2.3,0-3.9-1.8-3.9-3.9V13.2h-15.1c-2,0-3.7-1.6-3.7-3.5
		c0-2.1,1.6-3.7,3.7-3.7h37.7c2.1,0,3.7,1.6,3.7,3.7C852.1,11.6,850.4,13.2,848.4,13.2z"/>
	<path class="st0" d="M884.2,60.1c-7,0-14.2-2.3-18.8-5.9c-1.2-1-2.1-2.2-2.1-3.6c0-2,1.4-3.1,3.3-3.1c1,0,1.8,0.4,2.7,1
		c4.4,2.8,8.5,4.9,15,4.9c8.5,0,12.6-3.4,12.6-8c0-5.3-4.7-7-14.3-9.9c-14.2-4.2-18.7-8.6-18.7-16.1c0-9.6,8.5-14.4,20.4-14.4
		c4.1,0,8.2,0.8,12,2.2c2.7,1,6.5,3,6.5,5.4c0,1.8-1,3.4-3.3,3.4c-0.6,0-1.1-0.2-1.5-0.4c-3.9-2.2-8.4-3.9-13.6-3.9
		c-7.8,0-12.8,2.2-12.8,7.4c0,4.7,3.9,6.4,13.1,9.3c12.8,4,19.9,7.4,19.9,16.5C904.5,53.5,897.5,60.1,884.2,60.1z"/>
	<path class="st1" d="M21.8,93.8h-6.1v17.4c0,0.9-0.6,1.6-1.5,1.6c-0.9,0-1.6-0.7-1.6-1.6V93.8H6.5c-0.8,0-1.5-0.6-1.5-1.4
		c0-0.8,0.6-1.5,1.5-1.5h15.3c0.8,0,1.5,0.6,1.5,1.5C23.3,93.1,22.6,93.8,21.8,93.8z"/>
	<path class="st1" d="M45.3,112.7c-0.9,0-1.6-0.7-1.6-1.6v-8.3H32.1v8.3c0,0.9-0.6,1.6-1.5,1.6c-0.9,0-1.6-0.7-1.6-1.6v-19
		c0-0.9,0.6-1.6,1.6-1.6s1.6,0.7,1.6,1.6v7.7h11.7v-7.7c0-0.9,0.7-1.6,1.6-1.6c0.9,0,1.6,0.7,1.6,1.6v19
		C46.9,112,46.2,112.7,45.3,112.7z"/>
	<path class="st1" d="M68.7,112.5H56.3c-0.9,0-1.6-0.7-1.6-1.6V92.4c0-0.9,0.7-1.6,1.6-1.6h12c0.8,0,1.5,0.6,1.5,1.4
		s-0.7,1.4-1.5,1.4H57.8v6.3h5.9c0.8,0,1.4,0.6,1.4,1.4c0,0.8-0.6,1.4-1.4,1.4h-5.9v6.8h10.9c0.8,0,1.5,0.6,1.5,1.4
		C70.2,111.9,69.5,112.5,68.7,112.5z"/>
	<path class="st1" d="M105.5,94c0.3,0.3,0.4,0.7,0.4,1.1c0,0.8-0.6,1.4-1.4,1.4c-0.6,0-1-0.4-1.4-0.7c-1.4-1.6-3.3-2.5-5.6-2.5
		c-5.3,0-8,3.8-8,8.4c0,4.6,2.8,8.4,8,8.4c2.4,0,4.3-0.9,5.6-2.5c0.3-0.4,0.7-0.7,1.4-0.7c0.8,0,1.4,0.6,1.4,1.4
		c0,0.4-0.2,0.8-0.4,1.1c-1.6,2-4.6,3.6-8.2,3.6c-6.8,0-11-5.1-11-11.2c0-6.1,4.2-11.2,11-11.2C100.9,90.5,103.9,92,105.5,94z"/>
	<path class="st1" d="M128.8,112.7c-0.9,0-1.6-0.7-1.6-1.6v-8.3h-11.7v8.3c0,0.9-0.6,1.6-1.5,1.6c-0.9,0-1.6-0.7-1.6-1.6v-19
		c0-0.9,0.6-1.6,1.6-1.6s1.6,0.7,1.6,1.6v7.7h11.7v-7.7c0-0.9,0.7-1.6,1.6-1.6c0.9,0,1.6,0.7,1.6,1.6v19
		C130.4,112,129.7,112.7,128.8,112.7z"/>
	<path class="st1" d="M152.2,112.5h-12.5c-0.9,0-1.6-0.7-1.6-1.6V92.4c0-0.9,0.7-1.6,1.6-1.6h12c0.8,0,1.5,0.6,1.5,1.4
		s-0.7,1.4-1.5,1.4h-10.5v6.3h5.9c0.8,0,1.4,0.6,1.4,1.4c0,0.8-0.6,1.4-1.4,1.4h-5.9v6.8h10.9c0.8,0,1.5,0.6,1.5,1.4
		C153.7,111.9,153,112.5,152.2,112.5z"/>
	<path class="st1" d="M179,91.5c0.3-0.6,0.7-0.9,1.4-0.9c0.8,0,1.5,0.5,1.5,1.5v19.2c0,0.8-0.6,1.5-1.5,1.5c-0.9,0-1.5-0.7-1.5-1.5
		V98.1l-6.8,13.7c-0.3,0.6-0.6,0.9-1.4,0.9c-0.7,0-1.1-0.4-1.4-0.9l-6.8-13.7v13.2c0,0.8-0.6,1.5-1.5,1.5c-0.9,0-1.5-0.7-1.5-1.5
		V92.1c0-0.9,0.6-1.5,1.5-1.5c0.7,0,1.1,0.4,1.4,0.9l8.2,16.9L179,91.5z"/>
	<path class="st1" d="M191.5,112.7c-0.9,0-1.6-0.7-1.6-1.6v-19c0-0.9,0.6-1.6,1.6-1.6c0.9,0,1.5,0.6,1.5,1.6v19
		C193,112,192.4,112.7,191.5,112.7z"/>
	<path class="st1" d="M218.8,94c0.3,0.3,0.4,0.7,0.4,1.1c0,0.8-0.6,1.4-1.4,1.4c-0.6,0-1-0.4-1.4-0.7c-1.4-1.6-3.3-2.5-5.6-2.5
		c-5.3,0-8,3.8-8,8.4c0,4.6,2.8,8.4,8,8.4c2.4,0,4.3-0.9,5.6-2.5c0.3-0.4,0.7-0.7,1.4-0.7c0.8,0,1.4,0.6,1.4,1.4
		c0,0.4-0.2,0.8-0.4,1.1c-1.6,2-4.6,3.6-8.2,3.6c-6.8,0-11-5.1-11-11.2c0-6.1,4.2-11.2,11-11.2C214.2,90.5,217.2,92,218.8,94z"/>
	<path class="st1" d="M244.2,110.6c0.1,0.2,0.2,0.4,0.2,0.6c0,0.7-0.5,1.5-1.5,1.5c-0.7,0-1.2-0.4-1.4-0.9l-2.2-4.7h-10.2l-2.2,4.7
		c-0.2,0.5-0.6,0.9-1.4,0.9c-1,0-1.5-0.7-1.5-1.5c0-0.2,0.1-0.4,0.2-0.6l8.6-19.1c0.3-0.6,0.7-0.9,1.4-0.9c0.7,0,1.1,0.3,1.4,0.9
		L244.2,110.6z M234.2,95.1l-4,9.2h7.9L234.2,95.1z"/>
	<path class="st1" d="M250.6,110.9V92.2c0-0.9,0.6-1.6,1.6-1.6c0.9,0,1.5,0.6,1.5,1.6v17.4h10.4c0.8,0,1.5,0.6,1.5,1.4
		c0,0.8-0.7,1.5-1.5,1.5h-11.9C251.3,112.5,250.6,111.8,250.6,110.9z"/>
	<path class="st1" d="M292.4,112.5h-7.9c-0.9,0-1.6-0.7-1.6-1.6V92.4c0-0.9,0.7-1.6,1.6-1.6h7.6c4.1,0,6.6,2.1,6.6,5.4
		c0,2.1-1.3,3.8-3.3,4.7c2.6,0.5,4.6,2.2,4.6,5.5C299.9,109.5,297.4,112.5,292.4,112.5z M292.1,93.6H286v6h6.2
		c2.2,0,3.3-1.5,3.3-3.1C295.5,94.6,294.1,93.6,292.1,93.6z M286,102.5v7.2h6.6c2.7,0,4.2-1.5,4.2-3.6c0-2.2-1.6-3.6-4.2-3.6H286z"
		/>
	<path class="st1" d="M308,112.7c-0.9,0-1.6-0.7-1.6-1.6V92.4c0-0.9,0.6-1.6,1.6-1.6h8.7c4.9,0,7.4,2.6,7.4,6.4c0,2.9-1.5,5-4.4,5.8
		l3.6,7.4c0.1,0.2,0.2,0.5,0.2,0.7c0,0.8-0.6,1.6-1.5,1.6c-0.7,0-1.1-0.3-1.4-0.9l-4.1-8.4h-6.9v7.7
		C309.5,112,308.9,112.7,308,112.7z M309.5,93.7v7h7.8c2.4,0,3.6-1.6,3.6-3.5s-1.2-3.5-3.6-3.5H309.5z"/>
	<path class="st1" d="M340.5,112.9c-6.6,0-11-5.1-11-11.2s4.4-11.2,11-11.2c6.6,0,11,5.1,11,11.2S347.1,112.9,340.5,112.9z
		 M340.5,93.3c-5,0-7.9,3.9-7.9,8.4c0,4.4,2.8,8.4,7.9,8.4c5,0,7.9-3.9,7.9-8.4C348.4,97.2,345.5,93.3,340.5,93.3z"/>
	<path class="st1" d="M371.3,93.8h-6.1v17.4c0,0.9-0.6,1.6-1.5,1.6c-0.9,0-1.6-0.7-1.6-1.6V93.8H356c-0.8,0-1.5-0.6-1.5-1.4
		c0-0.8,0.6-1.5,1.5-1.5h15.3c0.8,0,1.5,0.6,1.5,1.5C372.8,93.1,372.1,93.8,371.3,93.8z"/>
	<path class="st1" d="M394.8,112.7c-0.9,0-1.6-0.7-1.6-1.6v-8.3h-11.7v8.3c0,0.9-0.6,1.6-1.5,1.6c-0.9,0-1.6-0.7-1.6-1.6v-19
		c0-0.9,0.6-1.6,1.6-1.6s1.6,0.7,1.6,1.6v7.7h11.7v-7.7c0-0.9,0.7-1.6,1.6-1.6c0.9,0,1.6,0.7,1.6,1.6v19
		C396.4,112,395.7,112.7,394.8,112.7z"/>
	<path class="st1" d="M418.2,112.5h-12.5c-0.9,0-1.6-0.7-1.6-1.6V92.4c0-0.9,0.7-1.6,1.6-1.6h12c0.8,0,1.5,0.6,1.5,1.4
		s-0.7,1.4-1.5,1.4h-10.5v6.3h5.9c0.8,0,1.4,0.6,1.4,1.4c0,0.8-0.6,1.4-1.4,1.4h-5.9v6.8h10.9c0.8,0,1.5,0.6,1.5,1.4
		C419.7,111.9,419,112.5,418.2,112.5z"/>
	<path class="st1" d="M427.3,112.7c-0.9,0-1.6-0.7-1.6-1.6V92.4c0-0.9,0.6-1.6,1.6-1.6h8.7c4.9,0,7.4,2.6,7.4,6.4
		c0,2.9-1.5,5-4.4,5.8l3.6,7.4c0.1,0.2,0.2,0.5,0.2,0.7c0,0.8-0.6,1.6-1.5,1.6c-0.7,0-1.1-0.3-1.4-0.9l-4.1-8.4h-6.9v7.7
		C428.9,112,428.3,112.7,427.3,112.7z M428.9,93.7v7h7.8c2.4,0,3.6-1.6,3.6-3.5s-1.2-3.5-3.6-3.5H428.9z"/>
	<path class="st1" d="M458.2,112.9c-2.9,0-5.8-0.9-7.7-2.4c-0.5-0.4-0.8-0.9-0.8-1.5c0-0.8,0.6-1.3,1.3-1.3c0.4,0,0.7,0.2,1.1,0.4
		c1.8,1.1,3.4,2,6.1,2c3.4,0,5.1-1.4,5.1-3.2c0-2.2-1.9-2.9-5.8-4c-5.8-1.7-7.6-3.5-7.6-6.6c0-3.9,3.4-5.8,8.3-5.8
		c1.7,0,3.3,0.3,4.9,0.9c1.1,0.4,2.6,1.2,2.6,2.2c0,0.7-0.4,1.4-1.3,1.4c-0.2,0-0.5-0.1-0.6-0.2c-1.6-0.9-3.4-1.6-5.6-1.6
		c-3.2,0-5.2,0.9-5.2,3c0,1.9,1.6,2.6,5.3,3.8c5.2,1.6,8.1,3,8.1,6.7C466.4,110.2,463.6,112.9,458.2,112.9z"/>
	<path class="st1" d="M498,93.8h-10.6v6.1h5.9c0.8,0,1.5,0.6,1.5,1.5c0,0.8-0.7,1.5-1.5,1.5h-5.9v8.3c0,0.9-0.7,1.6-1.6,1.6
		c-0.9,0-1.6-0.7-1.6-1.6V92.4c0-0.9,0.7-1.6,1.6-1.6H498c0.8,0,1.5,0.6,1.5,1.5C499.5,93.1,498.8,93.8,498,93.8z"/>
	<path class="st1" d="M519,112.5h-12.5c-0.9,0-1.6-0.7-1.6-1.6V92.4c0-0.9,0.7-1.6,1.6-1.6h12c0.8,0,1.5,0.6,1.5,1.4
		s-0.7,1.4-1.5,1.4h-10.5v6.3h5.9c0.8,0,1.4,0.6,1.4,1.4c0,0.8-0.6,1.4-1.4,1.4h-5.9v6.8H519c0.8,0,1.5,0.6,1.5,1.4
		C520.5,111.9,519.8,112.5,519,112.5z"/>
	<path class="st1" d="M545.1,110.6c0.1,0.2,0.2,0.4,0.2,0.6c0,0.7-0.5,1.5-1.5,1.5c-0.7,0-1.2-0.4-1.4-0.9l-2.2-4.7h-10.2l-2.2,4.7
		c-0.2,0.5-0.6,0.9-1.4,0.9c-1,0-1.5-0.7-1.5-1.5c0-0.2,0.1-0.4,0.2-0.6l8.6-19.1c0.3-0.6,0.7-0.9,1.4-0.9s1.1,0.3,1.4,0.9
		L545.1,110.6z M535.2,95.1l-4,9.2h7.9L535.2,95.1z"/>
	<path class="st1" d="M563.4,93.8h-6.1v17.4c0,0.9-0.6,1.6-1.5,1.6c-0.9,0-1.6-0.7-1.6-1.6V93.8h-6.1c-0.8,0-1.5-0.6-1.5-1.4
		c0-0.8,0.6-1.5,1.5-1.5h15.3c0.8,0,1.5,0.6,1.5,1.5C564.9,93.1,564.2,93.8,563.4,93.8z"/>
	<path class="st1" d="M570.5,103.8V92.2c0-0.9,0.6-1.6,1.6-1.6c0.9,0,1.5,0.6,1.5,1.6v12c0,3.5,2,5.9,6,5.9c4,0,6-2.4,6-5.9v-12
		c0-0.9,0.6-1.6,1.5-1.6c1,0,1.6,0.7,1.6,1.6v11.7c0,5.6-3.4,9-9.1,9S570.5,109.4,570.5,103.8z"/>
	<path class="st1" d="M598,112.7c-0.9,0-1.6-0.7-1.6-1.6V92.4c0-0.9,0.6-1.6,1.6-1.6h8.7c4.9,0,7.4,2.6,7.4,6.4c0,2.9-1.5,5-4.4,5.8
		l3.6,7.4c0.1,0.2,0.2,0.5,0.2,0.7c0,0.8-0.6,1.6-1.5,1.6c-0.7,0-1.1-0.3-1.4-0.9l-4.1-8.4h-6.9v7.7
		C599.5,112,598.9,112.7,598,112.7z M599.5,93.7v7h7.8c2.4,0,3.6-1.6,3.6-3.5s-1.2-3.5-3.6-3.5H599.5z"/>
	<path class="st1" d="M622.9,112.7c-0.9,0-1.6-0.7-1.6-1.6v-19c0-0.9,0.6-1.6,1.6-1.6c0.9,0,1.5,0.6,1.5,1.6v19
		C624.4,112,623.8,112.7,622.9,112.7z"/>
	<path class="st1" d="M648.9,112.7c-0.6,0-0.9-0.2-1.2-0.6l-12.4-15.8v14.9c0,0.8-0.6,1.5-1.5,1.5s-1.5-0.7-1.5-1.5V92.1
		c0-0.9,0.6-1.5,1.5-1.5c0.5,0,0.9,0.3,1.2,0.6l12.4,15.8V92.1c0-0.9,0.6-1.5,1.5-1.5c0.9,0,1.5,0.6,1.5,1.5v19.2
		C650.4,112.1,649.9,112.7,648.9,112.7z"/>
	<path class="st1" d="M676.6,109.4c-1.9,2.1-5,3.4-8.7,3.4c-6.6,0-11-4.8-11-11.2c0-6.6,4.6-11.2,10.9-11.2c2.8,0,5.5,0.8,7.3,2.8
		c0.3,0.3,0.5,0.6,0.5,1c0,0.8-0.6,1.4-1.4,1.4c-0.4,0-0.7-0.1-1-0.4c-1.7-1.3-3.2-1.9-5.4-1.9c-4.7,0-7.8,3.7-7.8,8.3
		c0,4.6,2.7,8.5,7.9,8.5c2.4,0,4.6-0.7,6-1.9v-4h-5.2c-0.8,0-1.4-0.6-1.4-1.4s0.6-1.4,1.4-1.4h6.7c0.9,0,1.6,0.6,1.6,1.6v5.4
		C677,108.8,676.9,109.1,676.6,109.4z"/>
	<path class="st1" d="M702.9,112.9c-2.9,0-5.8-0.9-7.7-2.4c-0.5-0.4-0.8-0.9-0.8-1.5c0-0.8,0.6-1.3,1.3-1.3c0.4,0,0.7,0.2,1.1,0.4
		c1.8,1.1,3.4,2,6.1,2c3.4,0,5.1-1.4,5.1-3.2c0-2.2-1.9-2.9-5.8-4c-5.8-1.7-7.6-3.5-7.6-6.6c0-3.9,3.4-5.8,8.3-5.8
		c1.7,0,3.3,0.3,4.9,0.9c1.1,0.4,2.6,1.2,2.6,2.2c0,0.7-0.4,1.4-1.3,1.4c-0.2,0-0.5-0.1-0.6-0.2c-1.6-0.9-3.4-1.6-5.6-1.6
		c-3.2,0-5.2,0.9-5.2,3c0,1.9,1.6,2.6,5.3,3.8c5.2,1.6,8.1,3,8.1,6.7C711.2,110.2,708.3,112.9,702.9,112.9z"/>
	<path class="st1" d="M732.3,93.8h-6.1v17.4c0,0.9-0.6,1.6-1.5,1.6c-0.9,0-1.6-0.7-1.6-1.6V93.8H717c-0.8,0-1.5-0.6-1.5-1.4
		c0-0.8,0.6-1.5,1.5-1.5h15.3c0.8,0,1.5,0.6,1.5,1.5C733.8,93.1,733.1,93.8,732.3,93.8z"/>
	<path class="st1" d="M735.9,108.8c1.1,0,1.9,0.9,1.9,1.9s-0.9,1.9-1.9,1.9c-1.1,0-1.9-0.9-1.9-1.9S734.8,108.8,735.9,108.8z"/>
	<path class="st1" d="M769.4,91.5c0.3-0.7,0.8-0.9,1.4-0.9c0.7,0,1.5,0.5,1.5,1.5c0,0.2-0.1,0.4-0.2,0.6l-8.2,19.2
		c-0.2,0.6-0.7,0.9-1.3,0.9s-1.1-0.3-1.3-0.9L753,92.7c-0.1-0.3-0.2-0.5-0.2-0.6c0-1,0.8-1.5,1.5-1.5c0.6,0,1.1,0.2,1.4,0.9
		l6.9,16.5L769.4,91.5z"/>
	<path class="st1" d="M779.7,112.7c-0.9,0-1.6-0.7-1.6-1.6v-19c0-0.9,0.6-1.6,1.6-1.6c0.9,0,1.5,0.6,1.5,1.6v19
		C781.3,112,780.6,112.7,779.7,112.7z"/>
	<path class="st1" d="M805.8,112.7c-0.6,0-0.9-0.2-1.2-0.6l-12.4-15.8v14.9c0,0.8-0.6,1.5-1.5,1.5s-1.5-0.7-1.5-1.5V92.1
		c0-0.9,0.6-1.5,1.5-1.5c0.5,0,0.9,0.3,1.2,0.6l12.4,15.8V92.1c0-0.9,0.6-1.5,1.5-1.5c0.9,0,1.5,0.6,1.5,1.5v19.2
		C807.3,112.1,806.7,112.7,805.8,112.7z"/>
	<path class="st1" d="M832.9,94c0.3,0.3,0.4,0.7,0.4,1.1c0,0.8-0.6,1.4-1.4,1.4c-0.6,0-1-0.4-1.4-0.7c-1.4-1.6-3.3-2.5-5.7-2.5
		c-5.3,0-8,3.8-8,8.4c0,4.6,2.8,8.4,8,8.4c2.4,0,4.3-0.9,5.7-2.5c0.3-0.4,0.7-0.7,1.4-0.7c0.8,0,1.4,0.6,1.4,1.4
		c0,0.4-0.2,0.8-0.4,1.1c-1.6,2-4.6,3.6-8.2,3.6c-6.8,0-11-5.1-11-11.2c0-6.1,4.2-11.2,11-11.2C828.3,90.5,831.3,92,832.9,94z"/>
	<path class="st1" d="M854,112.5h-12.5c-0.9,0-1.6-0.7-1.6-1.6V92.4c0-0.9,0.7-1.6,1.6-1.6h12c0.8,0,1.5,0.6,1.5,1.4
		s-0.7,1.4-1.5,1.4H843v6.3h5.9c0.8,0,1.4,0.6,1.4,1.4c0,0.8-0.6,1.4-1.4,1.4H843v6.8H854c0.8,0,1.5,0.6,1.5,1.4
		C855.5,111.9,854.8,112.5,854,112.5z"/>
	<path class="st1" d="M878.1,112.7c-0.6,0-0.9-0.2-1.2-0.6l-12.4-15.8v14.9c0,0.8-0.6,1.5-1.5,1.5s-1.5-0.7-1.5-1.5V92.1
		c0-0.9,0.6-1.5,1.5-1.5c0.5,0,0.9,0.3,1.2,0.6l12.4,15.8V92.1c0-0.9,0.6-1.5,1.5-1.5c0.9,0,1.5,0.6,1.5,1.5v19.2
		C879.6,112.1,879,112.7,878.1,112.7z"/>
	<path class="st1" d="M902.1,93.8H896v17.4c0,0.9-0.6,1.6-1.5,1.6c-0.9,0-1.6-0.7-1.6-1.6V93.8h-6.1c-0.8,0-1.5-0.6-1.5-1.4
		c0-0.8,0.6-1.5,1.5-1.5h15.3c0.8,0,1.5,0.6,1.5,1.5C903.6,93.1,902.9,93.8,902.1,93.8z"/>
</g>
<g>
	<path class="st1" d="M269.5,234.7c0.1,0.2,0.2,0.4,0.2,0.6c0,0.7-0.5,1.5-1.5,1.5c-0.7,0-1.2-0.4-1.4-0.9l-2.2-4.7h-10.2l-2.2,4.7
		c-0.2,0.5-0.6,0.9-1.4,0.9c-1,0-1.5-0.7-1.5-1.5c0-0.2,0.1-0.4,0.2-0.6l8.6-19.1c0.3-0.6,0.7-0.9,1.4-0.9c0.7,0,1.1,0.3,1.4,0.9
		L269.5,234.7z M259.6,219.3l-4,9.2h7.9L259.6,219.3z"/>
	<path class="st1" d="M305.6,231.3l5.3-15.6c0.2-0.7,0.7-1,1.4-1c0.8,0,1.4,0.6,1.4,1.4c0,0.1,0,0.4-0.1,0.6l-6.6,19.1
		c-0.2,0.6-0.6,1.1-1.5,1.1c-0.7,0-1.2-0.4-1.4-0.9l-5.3-15.6l-5.3,15.6c-0.2,0.6-0.7,0.9-1.4,0.9c-0.9,0-1.3-0.5-1.5-1.1l-6.6-19.1
		c-0.1-0.2-0.1-0.4-0.1-0.6c0-0.8,0.6-1.4,1.4-1.4c0.7,0,1.2,0.3,1.4,1l5.3,15.6l5.3-15.6c0.2-0.6,0.6-1,1.4-1c0.7,0,1.2,0.4,1.4,1
		L305.6,231.3z"/>
	<path class="st1" d="M333.8,236.6h-12.5c-0.9,0-1.6-0.7-1.6-1.6v-18.5c0-0.9,0.7-1.6,1.6-1.6h12c0.8,0,1.5,0.6,1.5,1.4
		c0,0.8-0.7,1.4-1.5,1.4h-10.5v6.3h5.9c0.8,0,1.4,0.6,1.4,1.4c0,0.8-0.6,1.4-1.4,1.4h-5.9v6.8h10.9c0.8,0,1.5,0.6,1.5,1.4
		C335.3,236,334.6,236.6,333.8,236.6z"/>
	<path class="st1" d="M350.8,236.6h-7.9c-0.9,0-1.6-0.7-1.6-1.6v-18.5c0-0.9,0.7-1.6,1.6-1.6h7.6c4.1,0,6.6,2.1,6.6,5.4
		c0,2.1-1.3,3.8-3.3,4.7c2.6,0.5,4.6,2.2,4.6,5.5C358.4,233.6,355.9,236.6,350.8,236.6z M350.6,217.8h-6.1v6h6.2
		c2.2,0,3.3-1.5,3.3-3.1C353.9,218.7,352.6,217.8,350.6,217.8z M344.5,226.6v7.2h6.6c2.7,0,4.2-1.5,4.2-3.6c0-2.2-1.6-3.6-4.2-3.6
		H344.5z"/>
	<path class="st1" d="M389.3,215.6c0.3-0.7,0.8-0.9,1.4-0.9c0.7,0,1.5,0.5,1.5,1.5c0,0.2-0.1,0.4-0.2,0.6l-8.2,19.2
		c-0.2,0.6-0.6,0.9-1.3,0.9c-0.7,0-1.1-0.3-1.3-0.9l-8.2-19.2c-0.1-0.3-0.2-0.5-0.2-0.6c0-1,0.8-1.5,1.5-1.5c0.6,0,1.1,0.2,1.4,0.9
		l6.9,16.5L389.3,215.6z"/>
	<path class="st1" d="M399.4,236.9c-0.9,0-1.6-0.7-1.6-1.6v-18.7c0-0.9,0.6-1.6,1.6-1.6h8.7c4.9,0,7.4,2.6,7.4,6.4
		c0,2.9-1.5,5-4.4,5.8l3.6,7.4c0.1,0.2,0.2,0.5,0.2,0.7c0,0.8-0.6,1.6-1.5,1.6c-0.7,0-1.1-0.3-1.4-0.9l-4.1-8.4H401v7.7
		C401,236.1,400.4,236.9,399.4,236.9z M401,217.8v7h7.8c2.4,0,3.6-1.6,3.6-3.5c0-1.9-1.2-3.5-3.6-3.5H401z"/>
	<path class="st1" d="M453.2,215.6c0.3-0.6,0.7-0.9,1.4-0.9c0.8,0,1.5,0.5,1.5,1.5v19.2c0,0.8-0.6,1.5-1.5,1.5
		c-0.9,0-1.5-0.7-1.5-1.5v-13.2l-6.8,13.7c-0.3,0.6-0.6,0.9-1.4,0.9c-0.7,0-1.1-0.4-1.4-0.9l-6.8-13.7v13.2c0,0.8-0.6,1.5-1.5,1.5
		c-0.9,0-1.5-0.7-1.5-1.5v-19.2c0-0.9,0.6-1.5,1.5-1.5c0.7,0,1.1,0.4,1.4,0.9l8.2,16.9L453.2,215.6z"/>
	<path class="st1" d="M463.8,228v-11.7c0-0.9,0.6-1.6,1.6-1.6c0.9,0,1.5,0.7,1.5,1.6v12c0,3.5,2,5.9,6,5.9c4,0,6-2.4,6-5.9v-12
		c0-0.9,0.6-1.6,1.5-1.6c1,0,1.6,0.7,1.6,1.6V228c0,5.6-3.4,9-9.1,9S463.8,233.5,463.8,228z"/>
	<path class="st1" d="M497.4,237c-2.9,0-5.8-0.9-7.7-2.4c-0.5-0.4-0.8-0.9-0.8-1.5c0-0.8,0.6-1.3,1.3-1.3c0.4,0,0.7,0.2,1.1,0.4
		c1.8,1.1,3.4,2,6.1,2c3.4,0,5.1-1.4,5.1-3.2c0-2.2-1.9-2.9-5.8-4c-5.8-1.7-7.6-3.5-7.6-6.6c0-3.9,3.4-5.8,8.3-5.8
		c1.7,0,3.3,0.3,4.9,0.9c1.1,0.4,2.6,1.2,2.6,2.2c0,0.7-0.4,1.4-1.3,1.4c-0.2,0-0.5-0.1-0.6-0.2c-1.6-0.9-3.4-1.6-5.6-1.6
		c-3.2,0-5.2,0.9-5.2,3c0,1.9,1.6,2.6,5.3,3.8c5.2,1.6,8.1,3,8.1,6.7C505.6,234.3,502.8,237,497.4,237z"/>
	<path class="st1" d="M514,236.9c-0.9,0-1.6-0.7-1.6-1.6v-19c0-0.9,0.6-1.6,1.6-1.6c0.9,0,1.5,0.7,1.5,1.6v19
		C515.5,236.1,514.9,236.9,514,236.9z"/>
	<path class="st1" d="M541.3,218.1c0.3,0.3,0.4,0.7,0.4,1.1c0,0.8-0.6,1.4-1.4,1.4c-0.6,0-1-0.4-1.4-0.7c-1.4-1.6-3.3-2.5-5.7-2.5
		c-5.3,0-8,3.8-8,8.4c0,4.6,2.8,8.4,8,8.4c2.4,0,4.3-0.9,5.7-2.5c0.3-0.4,0.7-0.7,1.4-0.7c0.8,0,1.4,0.6,1.4,1.4
		c0,0.4-0.2,0.8-0.4,1.1c-1.6,2-4.6,3.6-8.2,3.6c-6.8,0-11-5.1-11-11.2c0-6.1,4.2-11.2,11-11.2C536.7,214.6,539.7,216.1,541.3,218.1
		z"/>
	<path class="st1" d="M572.7,215.6c0.3-0.7,0.8-0.9,1.4-0.9c0.7,0,1.5,0.5,1.5,1.5c0,0.2-0.1,0.4-0.2,0.6l-8.2,19.2
		c-0.2,0.6-0.7,0.9-1.3,0.9s-1.1-0.3-1.3-0.9l-8.2-19.2c-0.1-0.3-0.2-0.5-0.2-0.6c0-1,0.8-1.5,1.5-1.5c0.6,0,1.1,0.2,1.4,0.9
		l6.9,16.5L572.7,215.6z"/>
	<path class="st1" d="M583,236.9c-0.9,0-1.6-0.7-1.6-1.6v-19c0-0.9,0.6-1.6,1.6-1.6c0.9,0,1.5,0.7,1.5,1.6v19
		C584.5,236.1,583.9,236.9,583,236.9z"/>
	<path class="st1" d="M600.1,236.6h-6c-0.9,0-1.6-0.7-1.6-1.6v-18.4c0-0.9,0.7-1.6,1.6-1.6h6c6.7,0,10.8,4.6,10.8,10.8
		S606.8,236.6,600.1,236.6z M600,217.8h-4.4v15.9h4.4c5,0,7.8-3.3,7.8-8S605,217.8,600,217.8z"/>
	<path class="st1" d="M631.5,236.6H619c-0.9,0-1.6-0.7-1.6-1.6v-18.5c0-0.9,0.7-1.6,1.6-1.6h12c0.8,0,1.5,0.6,1.5,1.4
		c0,0.8-0.7,1.4-1.5,1.4h-10.5v6.3h5.9c0.8,0,1.4,0.6,1.4,1.4c0,0.8-0.6,1.4-1.4,1.4h-5.9v6.8h10.9c0.8,0,1.5,0.6,1.5,1.4
		C633,236,632.3,236.6,631.5,236.6z"/>
	<path class="st1" d="M647.7,237c-6.6,0-11-5.1-11-11.2s4.4-11.2,11-11.2c6.6,0,11,5.1,11,11.2S654.3,237,647.7,237z M647.7,217.4
		c-5,0-7.9,3.9-7.9,8.4s2.8,8.4,7.9,8.4c5,0,7.9-3.9,7.9-8.4S652.8,217.4,647.7,217.4z"/>
</g>
</svg>
